<?xml version="1.0" standalone="no"?>
<!DOCTYPE svg PUBLIC "-//W3C//DTD SVG 1.1//EN" "http://www.w3.org/Graphics/SVG/1.1/DTD/svg11.dtd" >
<svg xmlns="http://www.w3.org/2000/svg">
<metadata>
This is a custom SVG webfont generated by Font Squirrel.
Designer    : Mark Simonson
Foundry URL : httpwwwmarksimonsoncom
</metadata>
<defs>
<font id="webfontRRRHaqdw" horiz-adv-x="481" >
<font-face units-per-em="1000" ascent="790" descent="-210" />
<missing-glyph horiz-adv-x="215" />
<glyph unicode="ffj" horiz-adv-x="710" d="M155 0h-72v420h-64v63h64v58q0 64 32.5 100t88.5 36q54 0 86 -32l-28 -53q-20 21 -46 21q-61 0 -61 -72v-58h81v-63h-81v-420zM408 0h-72v420h-64v63h64v58q0 64 32.5 100t85.5 36q36 0 62 -15l-18 -58q-10 9 -31 9q-28 0 -43.5 -19t-15.5 -53v-58h81v-63h-81v-420z M608 553q-20 0 -34.5 14.5t-14.5 34.5t14.5 34.5t34.5 14.5q21 0 35 -14.5t14 -34.5t-14 -34.5t-35 -14.5zM523 -196q-50 0 -81 34l26 55q18 -25 49 -25q56 0 56 73v542h71v-542q0 -137 -121 -137z" />
<glyph unicode="fj" horiz-adv-x="456" d="M155 0h-72v420h-64v63h64v58q0 64 32.5 100t85.5 36q37 0 62 -15l-18 -58q-11 9 -31 9q-28 0 -43.5 -19t-15.5 -53v-58h81v-63h-81v-420zM354 553q-20 0 -34.5 14.5t-14.5 34.5t14.5 34.5t34.5 14.5q21 0 35 -14.5t14 -34.5t-14 -34.5t-35 -14.5zM269 -196q-50 0 -81 34 l26 55q18 -25 49 -25q56 0 56 73v542h71v-542q0 -137 -121 -137z" />
<glyph unicode="&#xfb00;" horiz-adv-x="507" d="M155 0h-72v420h-64v63h64v58q0 64 32.5 100t88.5 36q54 0 86 -32l-28 -53q-20 21 -46 21q-61 0 -61 -72v-58h81v-63h-81v-420zM408 0h-72v420h-64v63h64v58q0 64 32.5 100t88.5 36q54 0 86 -32l-28 -53q-19 21 -46 21q-61 0 -61 -72v-58h81v-63h-81v-420z" />
<glyph unicode="&#xfb01;" horiz-adv-x="456" d="M155 0h-72v420h-64v63h64v58q0 64 32.5 100t85.5 36q37 0 62 -15l-18 -58q-11 9 -31 9q-28 0 -43.5 -19t-15.5 -53v-58h81v-63h-81v-420zM354 553q-20 0 -34.5 14.5t-14.5 34.5t14.5 34.5t34.5 14.5q21 0 35 -14.5t14 -34.5t-14 -34.5t-35 -14.5zM390 0h-71v483h71v-483z " />
<glyph unicode="&#xfb02;" horiz-adv-x="456" d="M155 0h-72v420h-64v63h64v58q0 64 32.5 100t85.5 36q37 0 62 -15l-18 -58q-11 9 -31 9q-28 0 -43.5 -19t-15.5 -53v-58h81v-63h-81v-420zM390 0h-71v667h71v-667z" />
<glyph unicode="&#xfb03;" horiz-adv-x="710" d="M155 0h-72v420h-64v63h64v58q0 64 32.5 100t88.5 36q54 0 86 -32l-28 -53q-20 21 -46 21q-61 0 -61 -72v-58h81v-63h-81v-420zM408 0h-72v420h-64v63h64v58q0 64 32.5 100t85.5 36q36 0 62 -15l-18 -58q-10 9 -31 9q-28 0 -43.5 -19t-15.5 -53v-58h81v-63h-81v-420z M608 553q-20 0 -34.5 14.5t-14.5 34.5t14.5 34.5t34.5 14.5q21 0 35 -14.5t14 -34.5t-14 -34.5t-35 -14.5zM644 0h-71v483h71v-483z" />
<glyph unicode="&#xfb04;" horiz-adv-x="710" d="M155 0h-72v420h-64v63h64v58q0 64 32.5 100t88.5 36q54 0 86 -32l-28 -53q-20 21 -46 21q-61 0 -61 -72v-58h81v-63h-81v-420zM408 0h-72v420h-64v63h64v58q0 64 32.5 100t85.5 36q36 0 62 -15l-18 -58q-10 9 -31 9q-28 0 -43.5 -19t-15.5 -53v-58h81v-63h-81v-420z M644 0h-71v667h71v-667z" />
<glyph unicode="fb" horiz-adv-x="734" d="M155 0h-72v420h-64v63h64v58q0 64 32.5 100t85.5 36q37 0 62 -15l-18 -58q-11 9 -31 9q-28 0 -43.5 -19t-15.5 -53v-58h81v-63h-81v-420zM390 130q15 -33 45.5 -55.5t64.5 -22.5q57 0 86.5 53t29.5 136t-29.5 136.5t-86.5 53.5q-33 0 -64 -23.5t-46 -56.5v-221zM390 0 h-71v667h71v-254q46 82 128 82q81 0 127 -69.5t46 -184.5t-46 -184t-127 -69q-38 0 -72.5 22t-55.5 59v-69z" />
<glyph unicode="fh" horiz-adv-x="719" d="M155 0h-72v420h-64v63h64v58q0 64 32.5 100t85.5 36q37 0 62 -15l-18 -58q-11 9 -31 9q-28 0 -43.5 -19t-15.5 -53v-58h81v-63h-81v-420zM653 0h-72v345q0 86 -77 86q-34 0 -65 -22.5t-49 -54.5v-354h-71v667h71v-253q22 34 61 57.5t80 23.5q122 0 122 -130v-365z" />
<glyph unicode="fk" horiz-adv-x="692" d="M155 0h-72v420h-64v63h64v58q0 64 32.5 100t85.5 36q37 0 62 -15l-18 -58q-11 9 -31 9q-28 0 -43.5 -19t-15.5 -53v-58h81v-63h-81v-420zM677 0h-85l-133 218l-69 -87v-131h-71v667h71v-446l202 262h84l-168 -217z" />
<glyph unicode=" "  horiz-adv-x="215" />
<glyph unicode="&#x09;" horiz-adv-x="215" />
<glyph unicode="&#xa0;" horiz-adv-x="215" />
<glyph unicode="!" horiz-adv-x="228" d="M144 185h-59l-16 482h90zM114 -10q-22 0 -37.5 16t-15.5 38q0 21 15.5 37t37.5 16t38 -16t16 -37q0 -22 -16 -38t-38 -16z" />
<glyph unicode="&#x22;" horiz-adv-x="340" d="M117 414h-37q-26 204 -26 219q0 18 13 31t32 13q18 0 31 -13t13 -31zM259 414h-36q-26 204 -26 219q0 18 12.5 31t31.5 13t32 -13t13 -31z" />
<glyph unicode="#" horiz-adv-x="507" d="M263 0h-59l53 182h-92l-51 -182h-59l52 182h-88l14 51h89l56 201h-88l12 51h91l51 182h59l-51 -182h90l51 182h59l-52 -182h88l-13 -51h-89l-57 -201h91l-14 -51h-92zM270 233l57 201h-90l-57 -201h90z" />
<glyph unicode="$" horiz-adv-x="469" d="M213 -100v89q-113 6 -182 83l44 61q55 -66 138 -73v250q-31 15 -48 24.5t-42 27.5t-38.5 35.5t-23.5 45t-10 60.5q0 69 45 116.5t117 56.5v92h59v-91q91 -9 149 -70l-41 -60q-43 48 -108 57v-227q37 -18 60 -32.5t49.5 -38.5t39.5 -57t13 -75q0 -70 -41.5 -121 t-120.5 -62v-91h-59zM353 169q0 38 -21 64t-60 48v-217q40 10 60.5 39t20.5 66zM132 507q0 -33 21 -56.5t60 -44.5v198q-36 -8 -58.5 -34t-22.5 -63z" />
<glyph unicode="%" horiz-adv-x="650" d="M171 348q-63 0 -102 46.5t-39 117.5t39 118t102 47t101.5 -46.5t38.5 -118.5q0 -71 -38.5 -117.5t-101.5 -46.5zM175 0h-47l350 667h48zM480 -12q-63 0 -102 46t-39 117q0 72 39 119t102 47q62 0 101.5 -47.5t39.5 -118.5q0 -70 -39.5 -116.5t-101.5 -46.5zM171 397 q38 0 61 33t23 82q0 50 -23 83t-61 33t-61.5 -33t-23.5 -83q0 -49 23.5 -82t61.5 -33zM480 37q38 0 61.5 32.5t23.5 81.5q0 51 -23.5 84t-61.5 33t-61.5 -33t-23.5 -84q0 -49 23.5 -81.5t61.5 -32.5z" />
<glyph unicode="&#x26;" horiz-adv-x="522" d="M505 0h-90l-54 66q-66 -78 -156 -78q-73 0 -120.5 48t-47.5 132q0 69 31.5 115t88.5 87q-44 90 -44 149q0 70 39 114t99 44q54 0 90 -35.5t36 -94.5q0 -35 -10 -63t-34.5 -53t-40.5 -37.5t-51 -37.5q31 -54 59 -93q36 -54 60 -86q31 63 53 149l61 -27q-33 -108 -72 -176z M214 48q59 0 109 67q-48 61 -74 102q-29 42 -62 99q-74 -62 -74 -144q0 -58 29 -91t72 -33zM184 518q0 -47 30 -110q47 32 72 63t25 74q0 37 -16.5 56.5t-41.5 19.5q-31 0 -50 -27t-19 -76z" />
<glyph unicode="'" horiz-adv-x="197" d="M117 414h-37q-26 204 -26 219q0 18 13 31t32 13q18 0 31 -13t13 -31z" />
<glyph unicode="(" horiz-adv-x="229" d="M211 -171l-47 -28q-118 199 -118 442t118 442l47 -27q-43 -103 -64.5 -199.5t-21.5 -215.5q0 -210 86 -414z" />
<glyph unicode=")" horiz-adv-x="229" d="M18 -171l47 -28q118 202 118 442t-118 442l-47 -27q43 -103 64.5 -199.5t21.5 -215.5q0 -210 -86 -414z" />
<glyph unicode="*" horiz-adv-x="322" d="M183 391h-44l5 115l-96 -63l-22 38l102 53l-102 52l22 38l96 -62l-5 115h44l-6 -115l97 62l22 -38l-102 -52l102 -53l-22 -38l-97 63z" />
<glyph unicode="+" horiz-adv-x="438" d="M409 312h-162v-184h-55v184h-163v51h163v177h55v-177h162v-51z" />
<glyph unicode="," horiz-adv-x="229" d="M173 22q0 -43 -22.5 -83t-57.5 -65l-36 29q24 17 42.5 43t21.5 50q-1 0 -5.5 -0.5t-7.5 -0.5q-20 0 -33.5 14t-13.5 35q0 22 15 37.5t37 15.5q25 0 42.5 -20t17.5 -55z" />
<glyph unicode="-" horiz-adv-x="268" d="M238 210h-208v64h208v-64z" />
<glyph unicode="." horiz-adv-x="229" d="M114 -10q-22 0 -37.5 16t-15.5 38q0 21 15.5 37t37.5 16t38 -16t16 -37q0 -22 -16 -38t-38 -16z" />
<glyph unicode="/" horiz-adv-x="248" d="M56 -20h-56l192 707h56z" />
<glyph unicode="0" horiz-adv-x="514" d="M257 -12q-56 0 -98 31t-65.5 82.5t-35 109.5t-11.5 122q0 88 19 162t68 128t123 54t123 -54t68 -128t19 -162q0 -64 -11.5 -122t-35 -109.5t-65.5 -82.5t-98 -31zM257 59q37 0 63 23.5t39.5 65t19.5 87t6 98.5q0 273 -128 273t-128 -273q0 -54 6 -99t19.5 -86.5t39.5 -65 t63 -23.5z" />
<glyph unicode="1" horiz-adv-x="315" d="M245 0h-79v562l-103 -110l-48 50l160 165h70v-667z" />
<glyph unicode="2" horiz-adv-x="491" d="M431 0h-379v65q185 211 223 263q70 101 73 166q0 52 -32 82t-77 30q-90 0 -141 -84l-53 48q71 107 195 107q80 0 134 -49t54 -133q0 -28 -6 -54.5t-24.5 -60.5t-33.5 -58.5t-53.5 -74l-62.5 -78.5l-83 -98h266v-71z" />
<glyph unicode="3" horiz-adv-x="474" d="M227 -12q-67 0 -119 31t-79 80l53 47q51 -87 143 -87q59 0 90.5 34t31.5 93q0 64 -36 92.5t-93 28.5q-43 0 -52 -1v73q9 -1 51 -1q53 0 87 28.5t34 82.5q0 57 -32 87t-83 30q-80 0 -136 -79l-50 45q66 105 191 105q84 0 136.5 -45.5t52.5 -131.5q0 -59 -35.5 -101.5 t-83.5 -53.5q48 -8 88 -53t40 -112q0 -86 -52.5 -139t-146.5 -53z" />
<glyph unicode="4" horiz-adv-x="463" d="M366 0h-79v171h-264v69l242 427h101v-426h74v-70h-74v-171zM287 241v339l-191 -339h191z" />
<glyph unicode="5" horiz-adv-x="493" d="M249 -12q-130 0 -197 109l53 48q52 -86 141 -86q54 0 87.5 42.5t33.5 103.5q0 69 -31.5 107.5t-84.5 38.5q-69 0 -121 -63l-59 21v358h341v-71h-262v-233q47 58 124 58q75 0 124.5 -57t49.5 -158q0 -95 -56 -156.5t-143 -61.5z" />
<glyph unicode="6" horiz-adv-x="493" d="M259 -12q-58 0 -100.5 28.5t-66 78t-34.5 109t-11 129.5q0 94 22 169t74.5 125t129.5 50q101 0 156 -83l-44 -56q-42 68 -111 68q-51 0 -85 -41.5t-47.5 -99t-13.5 -125.5v-21q19 40 59.5 69.5t88.5 29.5q76 0 125.5 -55.5t49.5 -157.5q0 -90 -52 -153.5t-140 -63.5z M255 59q56 0 85.5 43t29.5 101q0 75 -31.5 110.5t-83.5 35.5q-39 0 -72 -29t-54 -73q3 -45 13.5 -83.5t39.5 -71.5t73 -33z" />
<glyph unicode="7" horiz-adv-x="424" d="M184 0h-85l210 596h-283v71h373v-55z" />
<glyph unicode="8" horiz-adv-x="487" d="M244 -12q-90 0 -144.5 47.5t-54.5 129.5q0 62 39.5 110t93.5 69q-51 19 -87 61.5t-36 101.5q0 82 55.5 126t133.5 44t133.5 -44t55.5 -126q0 -59 -36.5 -102t-87.5 -61q54 -21 93.5 -69t39.5 -110q0 -82 -54.5 -129.5t-143.5 -47.5zM244 374q19 4 41 15.5t45 40.5t23 66 q0 50 -30 80t-79 30t-79 -29.5t-30 -80.5q0 -53 37.5 -83.5t71.5 -38.5zM244 59q49 0 83.5 31t34.5 84q0 58 -43 95t-75 42q-33 -5 -75.5 -42t-42.5 -95q0 -53 33.5 -84t84.5 -31z" />
<glyph unicode="9" horiz-adv-x="493" d="M220 -11q-100 0 -155 83l44 56q40 -68 111 -68q51 0 85.5 42t47.5 99t13 125q0 12 -1 21q-19 -40 -59 -69.5t-88 -29.5q-77 0 -126.5 55.5t-49.5 157.5q0 90 52 153.5t141 63.5q57 0 99.5 -28.5t66 -78t34.5 -109t11 -129.5t-13 -130t-39 -109t-70.5 -77t-103.5 -28z M238 317q39 0 72.5 29t53.5 73q-2 32 -8.5 61.5t-20 60t-38.5 48.5t-58 18q-57 0 -86.5 -43t-29.5 -101q0 -74 32 -110t83 -36z" />
<glyph unicode=":" horiz-adv-x="226" d="M114 384q-22 0 -37.5 15.5t-15.5 36.5q0 22 15.5 38t37.5 16t38 -16t16 -38q0 -21 -16 -36.5t-38 -15.5zM114 -10q-22 0 -37.5 16t-15.5 38q0 21 15.5 37t37.5 16t38 -16t16 -37q0 -22 -16 -38t-38 -16z" />
<glyph unicode=";" horiz-adv-x="228" d="M114 384q-22 0 -37.5 15.5t-15.5 37.5t15.5 37.5t37.5 15.5t38 -15.5t16 -37.5t-16 -37.5t-38 -15.5zM173 24q0 -44 -22.5 -83.5t-57.5 -64.5l-36 29q24 16 42.5 42.5t21.5 50.5q-1 0 -5.5 -1t-7.5 -1q-20 0 -33.5 14t-13.5 36q0 21 15 36.5t37 15.5q25 0 42.5 -20 t17.5 -54z" />
<glyph unicode="&#x3c;" horiz-adv-x="438" d="M409 125l-380 184v51l380 184v-60l-318 -150l318 -148v-61z" />
<glyph unicode="=" horiz-adv-x="438" d="M409 405h-380v51h380v-51zM409 212h-380v51h380v-51z" />
<glyph unicode="&#x3e;" horiz-adv-x="438" d="M409 309l-380 -184v61l318 148l-318 150v60l380 -184v-51z" />
<glyph unicode="?" horiz-adv-x="388" d="M169 184q-33 33 -33 83q0 34 15 62t36 48l42 39q21 20 36 45.5t15 55.5q0 37 -26 63.5t-71 26.5q-69 0 -114 -58l-41 52q63 76 166 76q75 0 120.5 -42t45.5 -106q0 -39 -16 -71.5t-38 -55.5l-46 -42q-22 -21 -38 -46t-16 -52q0 -31 23 -51zM192 -10q-22 0 -38 16t-16 38 q0 21 16 37t38 16t37.5 -16t15.5 -37q0 -22 -15.5 -38t-37.5 -16z" />
<glyph unicode="@" horiz-adv-x="693" d="M308 -70q-121 0 -197 83.5t-76 216.5q0 106 50.5 200.5t134.5 151t179 56.5q115 0 186.5 -78.5t71.5 -202.5q0 -119 -49 -195.5t-111 -76.5q-36 0 -58.5 21.5t-24.5 54.5l-1 6q-54 -82 -134 -82q-54 0 -88 37t-34 106q0 105 62.5 188t147.5 83q37 0 63 -21t37 -54l12 59 h65l-58 -274q-2 -12 -2 -22q0 -50 38 -50q19 0 41 22t40.5 75t18.5 123q0 113 -62 180t-163 67q-86 0 -162 -53.5t-120.5 -139.5t-44.5 -180q0 -118 67 -193t175 -75q83 0 162 56l17 -26q-87 -63 -183 -63zM302 139q64 0 121 85l32 150q-7 28 -27 49.5t-51 21.5 q-64 0 -107.5 -67.5t-43.5 -143.5q0 -44 19.5 -69.5t56.5 -25.5z" />
<glyph unicode="A" horiz-adv-x="512" d="M504 0h-86l-43 151h-238l-43 -151h-86l201 667h95zM358 222l-102 357l-102 -357h204z" />
<glyph unicode="B" horiz-adv-x="517" d="M298 0h-228v667h222q78 0 121.5 -46.5t43.5 -123.5q0 -60 -28.5 -100t-73.5 -53q48 -7 80.5 -55t32.5 -109q0 -83 -44 -131.5t-126 -48.5zM277 377q49 0 73.5 30t24.5 79t-24.5 79.5t-73.5 30.5h-127v-219h127zM281 71q52 0 78.5 30.5t26.5 86.5q0 51 -27 84.5t-78 33.5 h-131v-235h131z" />
<glyph unicode="C" horiz-adv-x="534" d="M307 -12q-118 0 -189 96.5t-71 248.5t71 248.5t189 96.5q126 0 196 -130l-66 -32q-45 91 -130 91q-81 0 -129.5 -76.5t-48.5 -197.5q0 -120 48.5 -197t129.5 -77q44 0 77.5 27t53.5 72l66 -31q-70 -139 -197 -139z" />
<glyph unicode="D" horiz-adv-x="565" d="M248 0h-178v667h178q127 0 198.5 -93.5t71.5 -240.5q0 -148 -71.5 -240.5t-198.5 -92.5zM248 71q90 0 138.5 72.5t48.5 189.5q0 118 -48 190.5t-139 72.5h-98v-525h98z" />
<glyph unicode="E" horiz-adv-x="462" d="M413 0h-343v667h343v-71h-263v-219h256v-71h-256v-235h263v-71z" />
<glyph unicode="F" horiz-adv-x="451" d="M150 0h-80v667h343v-71h-263v-219h256v-71h-256v-306z" />
<glyph unicode="G" horiz-adv-x="564" d="M307 -12q-117 0 -188.5 95t-71.5 250t71.5 250t188.5 95q128 0 199 -126l-64 -33q-49 88 -135 88q-80 0 -129 -75.5t-49 -198.5t49 -198.5t129 -75.5t126 57v155h-161v70h236v-256q-76 -97 -201 -97z" />
<glyph unicode="H" horiz-adv-x="575" d="M505 0h-79v308h-276v-308h-80v667h80v-289h276v289h79v-667z" />
<glyph unicode="I" horiz-adv-x="220" d="M150 0h-80v667h80v-667z" />
<glyph unicode="J" horiz-adv-x="399" d="M149 -12q-86 0 -140 61l36 62q40 -52 98 -52q50 0 78 30.5t28 84.5v493h80v-495q0 -91 -49.5 -137.5t-130.5 -46.5z" />
<glyph unicode="K" horiz-adv-x="510" d="M496 0h-95l-195 294l-56 -81v-213h-80v667h80v-346l233 346h95l-224 -316z" />
<glyph unicode="L" horiz-adv-x="414" d="M386 0h-322v667h80v-596h242v-71z" />
<glyph unicode="M" horiz-adv-x="684" d="M614 0h-79v540l-177 -540h-31l-177 540v-540h-80v667h111l161 -491l163 491h109v-667z" />
<glyph unicode="N" horiz-adv-x="573" d="M503 0h-76l-277 508v-508h-80v667h80l274 -498v498h79v-667z" />
<glyph unicode="O" horiz-adv-x="601" d="M300 -12q-118 0 -185.5 97.5t-67.5 247.5t67.5 247.5t185.5 97.5q119 0 186.5 -97.5t67.5 -247.5t-67.5 -247.5t-186.5 -97.5zM300 59q81 0 126.5 77.5t45.5 196.5q0 120 -45.5 197t-126.5 77t-126 -77t-45 -197q0 -119 45.5 -196.5t125.5 -77.5z" />
<glyph unicode="P" horiz-adv-x="488" d="M150 0h-80v667h203q88 0 136.5 -57t48.5 -143q0 -85 -48.5 -142.5t-136.5 -57.5h-123v-267zM265 338q51 0 81 35.5t30 93.5t-30 93.5t-81 35.5h-115v-258h115z" />
<glyph unicode="Q" horiz-adv-x="601" d="M300 -12q-118 0 -185.5 97.5t-67.5 247.5t67.5 247.5t185.5 97.5q119 0 186.5 -97.5t67.5 -247.5q0 -176 -87 -272l38 -58l-56 -36l-34 52q-51 -31 -115 -31zM300 59q41 0 74 22l-79 123l58 35l69 -108q50 76 50 202q0 120 -45.5 197t-126.5 77t-126 -77t-45 -197 q0 -119 45.5 -196.5t125.5 -77.5z" />
<glyph unicode="R" horiz-adv-x="510" d="M465 0h-90l-129 267h-96v-267h-80v667h204q81 0 132.5 -54.5t51.5 -144.5q0 -83 -39 -131t-94 -58zM265 337q51 0 81 36t30 94t-30 93.5t-81 35.5h-115v-259h115z" />
<glyph unicode="S" horiz-adv-x="472" d="M229 -12q-124 0 -200 84l44 61q61 -74 156 -74q59 0 90.5 32t31.5 78q0 44 -31 75t-76 52l-88 42q-45 23 -76 64.5t-31 100.5q0 76 54.5 125.5t137.5 49.5q112 0 178 -71l-41 -60q-54 60 -139 60q-47 0 -78 -28t-31 -72q0 -33 22.5 -58.5t56 -41t72.5 -36.5t72.5 -43 t56 -62t22.5 -92q0 -79 -52 -132.5t-151 -53.5z" />
<glyph unicode="T" horiz-adv-x="447" d="M263 0h-79v596h-159v71h397v-71h-159v-596z" />
<glyph unicode="U" horiz-adv-x="569" d="M285 -12q-101 0 -158 59.5t-57 168.5v451h80v-451q0 -77 35 -117t100 -40q64 0 99 40t35 117v451h80v-451q0 -109 -56.5 -168.5t-157.5 -59.5z" />
<glyph unicode="V" horiz-adv-x="512" d="M304 0h-95l-201 667h86l162 -571l162 571h86z" />
<glyph unicode="W" horiz-adv-x="717" d="M552 0h-85l-109 526l-109 -526h-84l-149 667h85l110 -543l114 543h67l114 -543l110 543h85z" />
<glyph unicode="X" horiz-adv-x="512" d="M504 0h-92l-156 276l-156 -276h-92l200 341l-189 326h93l144 -262l144 262h93l-189 -326z" />
<glyph unicode="Y" horiz-adv-x="501" d="M290 0h-79v282l-206 385h89l157 -308l157 308h88l-206 -385v-282z" />
<glyph unicode="Z" horiz-adv-x="463" d="M423 0h-383v68l281 528h-281v71h376v-66l-282 -530h289v-71z" />
<glyph unicode="[" horiz-adv-x="212" d="M195 -190h-158v868h158v-53h-102v-762h102v-53z" />
<glyph unicode="\" horiz-adv-x="248" d="M192 -20l-192 707h57l192 -707h-57z" />
<glyph unicode="]" horiz-adv-x="212" d="M175 -190h-158v53h102v762h-102v53h158v-868z" />
<glyph unicode="^" horiz-adv-x="381" d="M362 333h-58l-114 277l-113 -277h-58l144 334h55z" />
<glyph unicode="_" horiz-adv-x="422" d="M425 -93h-428v53h428v-53z" />
<glyph unicode="`" horiz-adv-x="186" d="M186 556h-51l-135 144h73z" />
<glyph unicode="&#x2cb;" horiz-adv-x="186" d="M186 556h-51l-135 144h73z" />
<glyph unicode="a" horiz-adv-x="452" d="M387 0h-72v53q-45 -65 -128 -65q-61 0 -103.5 44t-42.5 117t42.5 116t103.5 43q84 0 128 -63v85q0 49 -26 76t-73 27q-69 0 -122 -59l-32 50q67 71 165 71q74 0 117 -39t43 -118v-338zM211 40q71 0 104 60v95q-33 61 -104 61q-45 0 -71 -31t-26 -77t26 -77t71 -31z" />
<glyph unicode="b" d="M137 130q15 -33 45.5 -55.5t64.5 -22.5q57 0 86.5 53t29.5 136t-29.5 136.5t-86.5 53.5q-33 0 -64 -23.5t-46 -56.5v-221zM137 0h-71v667h71v-254q46 82 128 82q81 0 127 -69.5t46 -184.5t-46 -184t-127 -69q-38 0 -72.5 22t-55.5 59v-69z" />
<glyph unicode="c" horiz-adv-x="407" d="M243 -12q-92 0 -146.5 72t-54.5 182t54.5 181.5t146.5 71.5q86 0 138 -64l-39 -49q-36 49 -93 49q-62 0 -97 -54t-35 -135t35 -135.5t97 -54.5q56 0 93 49l39 -49q-51 -64 -138 -64z" />
<glyph unicode="d" d="M415 0h-72v69q-21 -37 -55 -59t-72 -22q-81 0 -127.5 69t-46.5 184t46.5 184.5t127.5 69.5q83 0 127 -82v254h72v-667zM234 52q34 0 64.5 23t44.5 55v222q-14 33 -45 56t-64 23q-57 0 -87 -53.5t-30 -136.5q0 -82 30 -135.5t87 -53.5z" />
<glyph unicode="e" horiz-adv-x="469" d="M250 -12q-95 0 -151.5 70.5t-56.5 183.5q0 108 53.5 180.5t143.5 72.5q92 0 141.5 -72t49.5 -183v-22h-314q2 -75 39.5 -122.5t100.5 -47.5q69 0 115 60l38 -43q-63 -77 -159 -77zM359 272q-1 64 -31 113.5t-91 49.5q-58 0 -88.5 -50.5t-32.5 -112.5h243z" />
<glyph unicode="f" horiz-adv-x="253" d="M155 0h-72v420h-64v63h64v58q0 64 32.5 100t88.5 36q54 0 86 -32l-28 -53q-20 21 -46 21q-61 0 -61 -72v-58h81v-63h-81v-420z" />
<glyph unicode="g" d="M224 -196q-100 0 -162 61l33 59q49 -56 126 -56q54 0 88 32t34 97v80q-21 -38 -55 -60.5t-72 -22.5q-81 0 -127.5 67.5t-46.5 182.5q0 114 46.5 182.5t127.5 68.5q83 0 127 -82v70h72v-486q0 -101 -53.5 -147t-137.5 -46zM234 58q33 0 63.5 23.5t45.5 56.5v214 q-15 33 -45.5 56t-63.5 23q-57 0 -87 -52.5t-30 -134.5t30 -134t87 -52z" />
<glyph unicode="h" horiz-adv-x="466" d="M400 0h-72v345q0 86 -77 86q-34 0 -65 -22.5t-49 -54.5v-354h-71v667h71v-253q23 34 61.5 57.5t79.5 23.5q122 0 122 -130v-365z" />
<glyph unicode="i" horiz-adv-x="203" d="M101 553q-20 0 -34.5 14.5t-14.5 34.5t14.5 34.5t34.5 14.5q21 0 35 -14.5t14 -34.5t-14 -34.5t-35 -14.5zM137 0h-71v483h71v-483z" />
<glyph unicode="j" horiz-adv-x="203" d="M101 553q-20 0 -34.5 14.5t-14.5 34.5t14.5 34.5t34.5 14.5q21 0 35 -14.5t14 -34.5t-14 -34.5t-35 -14.5zM16 -196q-50 0 -81 34l26 55q18 -25 49 -25q56 0 56 73v542h71v-542q0 -137 -121 -137z" />
<glyph unicode="k" horiz-adv-x="439" d="M424 0h-85l-133 218l-69 -87v-131h-71v667h71v-446l202 262h84l-168 -217z" />
<glyph unicode="l" horiz-adv-x="203" d="M137 0h-71v667h71v-667z" />
<glyph unicode="m" horiz-adv-x="693" d="M627 0h-72v349q0 82 -67 82q-31 0 -60.5 -23t-45.5 -54v-354h-72v349q0 82 -67 82q-31 0 -60 -22.5t-46 -54.5v-354h-71v483h71v-69q17 30 55 55.5t78 25.5q45 0 73.5 -23.5t34.5 -62.5q19 35 57.5 60.5t79.5 25.5q112 0 112 -126v-369z" />
<glyph unicode="n" horiz-adv-x="466" d="M400 0h-72v343q0 88 -77 88q-34 0 -65 -22.5t-49 -54.5v-354h-71v483h71v-69q23 34 61.5 57.5t79.5 23.5q122 0 122 -131v-364z" />
<glyph unicode="o" horiz-adv-x="478" d="M239 -12q-93 0 -145 73t-52 181t52 180.5t145 72.5t145 -72.5t52 -180.5t-52 -181t-145 -73zM239 52q60 0 91 55t31 135q0 79 -31 134t-91 55q-59 0 -90 -55t-31 -134q0 -80 31 -135t90 -55z" />
<glyph unicode="p" horiz-adv-x="479" d="M265 -12q-82 0 -128 82v-254h-71v667h71v-69q21 37 55.5 59t72.5 22q81 0 127 -69t46 -184t-46 -184.5t-127 -69.5zM247 52q57 0 86.5 53.5t29.5 136.5t-29.5 136t-86.5 53q-34 0 -64.5 -22.5t-45.5 -55.5v-221q15 -33 46 -56.5t64 -23.5z" />
<glyph unicode="q" horiz-adv-x="479" d="M232 52q33 0 64 23.5t46 56.5v221q-15 33 -45.5 55.5t-64.5 22.5q-57 0 -86.5 -53t-29.5 -136t29.5 -136.5t86.5 -53.5zM214 -12q-81 0 -127 69.5t-46 184.5t46 184t127 69q39 0 73 -22t55 -59v69h72v-667h-72v254q-46 -82 -128 -82z" />
<glyph unicode="r" horiz-adv-x="291" d="M137 0h-71v483h71v-77q53 87 137 87v-73q-16 2 -24 2q-32 0 -65 -23.5t-48 -55.5v-343z" />
<glyph unicode="s" horiz-adv-x="388" d="M191 -12q-105 0 -164 69l36 50q50 -61 126 -61q42 0 67.5 21.5t25.5 56.5q0 31 -25 51.5t-60 34t-70.5 29.5t-60.5 48t-25 78q0 56 42 93t112 37q91 0 148 -62l-34 -49q-40 53 -113 53q-39 0 -62.5 -20t-23.5 -50q0 -28 25 -47t60.5 -32.5t71 -30.5t60.5 -50t25 -81 q0 -61 -44 -99.5t-117 -38.5z" />
<glyph unicode="t" horiz-adv-x="263" d="M176 -12q-96 0 -96 109v323h-64v63h64v132h72v-132h81v-63h-81v-310q0 -58 39 -58q26 0 42 19l22 -54q-31 -29 -79 -29z" />
<glyph unicode="u" horiz-adv-x="465" d="M400 0h-72v67q-23 -34 -60.5 -56.5t-79.5 -22.5q-122 0 -122 130v365h71v-344q0 -87 78 -87q34 0 64.5 22t48.5 53v356h72v-483z" />
<glyph unicode="v" horiz-adv-x="409" d="M244 0h-79l-159 483h78l121 -397l121 397h77z" />
<glyph unicode="w" horiz-adv-x="639" d="M497 0h-73l-104 388l-104 -388h-73l-130 483h75l95 -386l102 386h67l104 -386l95 386h76z" />
<glyph unicode="x" horiz-adv-x="407" d="M395 0h-80l-111 194l-112 -194h-80l148 246l-140 237h80l104 -184l103 184h80l-140 -237z" />
<glyph unicode="y" horiz-adv-x="409" d="M41 -189l12 64q11 -7 32 -7t34.5 10.5t22.5 37.5l25 74l-161 493h78l121 -396l121 396h77l-194 -584q-17 -52 -46 -73.5t-74 -21.5q-29 0 -48 7z" />
<glyph unicode="z" horiz-adv-x="388" d="M345 0h-302v56l210 364h-210v63h298v-55l-210 -365h214v-63z" />
<glyph unicode="{" horiz-adv-x="231" d="M214 -190h-46q-44 0 -77 33.5t-33 85.5v221q0 30 -13.5 50t-38.5 20v48q25 0 38.5 20t13.5 50v221q0 52 33 85.5t77 33.5h46v-53h-46q-22 0 -38 -18.5t-16 -47.5v-227q0 -69 -45 -88q45 -19 45 -88v-227q0 -28 16 -47t38 -19h46v-53z" />
<glyph unicode="|" horiz-adv-x="194" d="M124 -20h-54v707h54v-707z" />
<glyph unicode="}" horiz-adv-x="231" d="M17 -190v53h46q22 0 38 19t16 47v227q0 69 45 88q-45 19 -45 88v227q0 29 -16 47.5t-38 18.5h-46v53h46q44 0 77.5 -33.5t33.5 -85.5v-221q0 -30 13.5 -50t38.5 -20v-48q-25 0 -38.5 -20t-13.5 -50v-221q0 -52 -33.5 -85.5t-77.5 -33.5h-46z" />
<glyph unicode="~" horiz-adv-x="449" d="M368 667l54 -5q-4 -49 -10 -85t-19 -74t-37 -58.5t-57 -20.5q-38 0 -61 30t-30.5 65.5t-21 65.5t-35.5 30q-31 0 -46 -46.5t-23 -145.5l-55 6q4 49 10.5 85t19.5 73.5t36.5 58t57.5 20.5q38 0 61 -30t30 -66t21 -66t36 -30q30 0 45 46.5t24 146.5z" />
<glyph unicode="&#xa1;" horiz-adv-x="228" d="M69 -184l15 482h60l15 -482h-90zM61 439q0 22 15.5 38t37.5 16t38 -16t16 -38q0 -21 -16 -37t-38 -16t-37.5 16t-15.5 37z" />
<glyph unicode="&#xa2;" horiz-adv-x="407" d="M204 -100v92q-75 15 -118.5 83.5t-43.5 166.5q0 97 43.5 165.5t118.5 83.5v74h57v-71q73 -5 120 -63l-39 -49q-32 43 -81 48v-378q47 5 81 49l39 -49q-44 -58 -120 -63v-89h-57zM117 242q0 -65 22.5 -114t64.5 -67v361q-42 -18 -64.5 -67t-22.5 -113z" />
<glyph unicode="&#xa3;" horiz-adv-x="450" d="M25 270v52h86q-22 31 -31.5 46t-20.5 48t-11 68q0 79 55.5 136t135.5 57q61 0 105.5 -30t64.5 -83l-63 -34q-12 35 -38 57.5t-63 22.5q-46 0 -79 -35t-33 -93q0 -27 7.5 -52t14 -37.5t23.5 -38t21 -32.5h113v-52h-90q6 -21 6 -47q0 -40 -20 -76.5t-51 -61.5q23 10 45 10 q28 0 65 -18.5t59 -18.5q25 0 47.5 11.5t33.5 25.5l31 -62q-39 -46 -117 -46q-41 0 -81 22t-68 22q-40 0 -98 -38l-28 59q52 28 81 69.5t29 86.5q0 29 -14 62h-117z" />
<glyph unicode="&#xa4;" horiz-adv-x="522" d="M486 137l-29 -29l-56 57q-60 -51 -140 -51t-140 51l-57 -57l-28 29l56 56q-50 63 -50 140q0 79 50 140l-56 57l28 28l57 -56q59 50 140 50q79 0 140 -50l56 56l29 -28l-56 -57q50 -61 50 -140q0 -77 -50 -140zM432 333q0 71 -50 121t-121 50t-121 -50t-50 -121t50 -121 t121 -50t121 50t50 121z" />
<glyph unicode="&#xa5;" horiz-adv-x="501" d="M290 0h-79v123h-189v51h189v108h-189v51h161l-178 334h89l157 -308l157 308h88l-179 -334h161v-51h-188v-108h188v-51h-188v-123z" />
<glyph unicode="&#xa6;" horiz-adv-x="194" d="M124 -20h-54v316h54v-316zM124 371h-54v316h54v-316z" />
<glyph unicode="&#xa7;" horiz-adv-x="390" d="M352 307q0 -84 -83 -121q83 -49 83 -128q0 -62 -45 -100.5t-116 -38.5q-101 0 -163 69l35 48q51 -62 125 -62q42 0 68 23t26 58q0 32 -25 54t-60 36t-70.5 30t-60.5 47t-25 77q0 44 28 76t72 43q-100 51 -100 132q0 55 42 91t109 36q95 0 151 -63l-34 -44q-45 53 -113 53 q-38 0 -62 -20t-24 -53q0 -30 25 -50t60.5 -33.5t71 -30t60.5 -49t25 -80.5zM284 297q0 63 -85 97q-91 -20 -91 -86q0 -34 26 -55t82 -45q68 32 68 89z" />
<glyph unicode="&#xa8;" horiz-adv-x="268" d="M266 604q0 -19 -13 -32t-32 -13t-32 13t-13 32q0 18 13 31.5t32 13.5t32 -13.5t13 -31.5zM92 604q0 -19 -13.5 -32t-31.5 -13q-19 0 -32 13t-13 32q0 18 13 31.5t32 13.5q18 0 31.5 -13.5t13.5 -31.5z" />
<glyph unicode="&#xa9;" horiz-adv-x="778" d="M734 334q0 -143 -101 -244t-244 -101t-244 101.5t-101 243.5q0 143 101 244t244 101t244 -101t101 -244zM704 334q0 130 -92.5 222.5t-222.5 92.5q-129 0 -222 -92.5t-93 -222.5q0 -129 93 -222t222 -93q130 0 222.5 93t92.5 222zM512 212l25 -25q-57 -66 -145 -66 q-87 0 -148 62t-61 152q0 91 60.5 152t148.5 61q90 0 145 -65l-25 -25q-19 26 -52 41.5t-68 15.5q-71 0 -122 -50.5t-51 -129.5q0 -77 51.5 -129.5t121.5 -52.5q36 0 68 16t52 43z" />
<glyph unicode="&#xaa;" horiz-adv-x="329" d="M277 326h-56v34q-31 -42 -88 -42q-41 0 -70 28.5t-29 75.5q0 48 28.5 75.5t70.5 27.5q58 0 88 -40v53q0 32 -18 48.5t-48 16.5q-49 0 -83 -41l-24 38q47 48 115 48q114 0 114 -112v-210zM153 356q47 0 68 38v57q-21 38 -68 38q-29 0 -46 -18.5t-17 -47.5q0 -30 17 -48.5 t46 -18.5z" />
<glyph unicode="&#xab;" horiz-adv-x="382" d="M352 63h-67l-125 180l125 177h67l-125 -177zM222 63h-67l-125 180l125 177h67l-125 -177z" />
<glyph unicode="&#xac;" horiz-adv-x="441" d="M409 456v-244h-53v193h-327v51h380z" />
<glyph unicode="&#xad;" horiz-adv-x="268" d="M238 210h-208v64h208v-64z" />
<glyph unicode="&#xae;" horiz-adv-x="494" d="M459 465q0 -88 -62 -150t-150 -62t-150 62t-62 150t62 150t150 62q89 0 150.5 -61.5t61.5 -150.5zM430 465q0 77 -53 130t-130 53t-130 -53t-53 -130q0 -76 53.5 -129.5t129.5 -53.5t129.5 53.5t53.5 129.5zM345 343h-40l-63 96h-44v-96h-32v243h99q32 0 54.5 -20.5 t22.5 -53.5q0 -35 -22.5 -53.5t-39.5 -18.5zM309 512q0 19 -13.5 32.5t-30.5 13.5h-67v-90h67q16 0 30 13t14 31z" />
<glyph unicode="&#xaf;" horiz-adv-x="306" d="M306 591h-306v46h306v-46z" />
<glyph unicode="&#x203e;" horiz-adv-x="306" d="M306 591h-306v46h306v-46z" />
<glyph unicode="&#xb0;" horiz-adv-x="289" d="M266 555q0 -49 -36 -84.5t-86 -35.5t-85.5 35t-35.5 85t35.5 86t85.5 36t86 -36t36 -86zM219 555q0 31 -22 53t-53 22t-52.5 -22t-21.5 -53q0 -30 21.5 -51.5t52.5 -21.5t53 21.5t22 51.5z" />
<glyph unicode="&#xb1;" horiz-adv-x="438" d="M409 318h-162v-184h-55v184h-163v51h163v177h55v-177h162v-51zM409 22h-380v51h380v-51z" />
<glyph unicode="&#xb2;" horiz-adv-x="327" d="M292 421h-251v44q116 115 153.5 161t37.5 87q0 32 -20 49t-49 17q-61 0 -91 -51l-35 35q44 64 128 64q54 0 89.5 -29.5t35.5 -82.5q0 -48 -37 -97.5t-134 -148.5h173v-48z" />
<glyph unicode="&#xb3;" horiz-adv-x="327" d="M293 530q0 -52 -35 -84t-96 -32q-90 0 -131 66l36 35q33 -53 93 -53q37 0 56.5 19t19.5 52q0 70 -83 70q-28 0 -33 -1v48q6 -1 31 -1q36 0 57.5 16.5t21.5 48.5t-20 48.5t-52 16.5q-52 0 -88 -47l-34 32q45 63 126 63q56 0 90.5 -28t34.5 -79q0 -36 -22.5 -60.5 t-53.5 -31.5q31 -4 56.5 -31t25.5 -67z" />
<glyph unicode="&#xb4;" horiz-adv-x="186" d="M186 700l-135 -144h-51l114 144h72z" />
<glyph unicode="&#xb5;" horiz-adv-x="465" d="M137 -184h-71v667h71v-344q0 -89 78 -89q33 0 64 22.5t49 54.5v356h72v-483h-72v67q-23 -34 -60.5 -56.5t-79.5 -22.5q-26 0 -51 7v-179z" />
<glyph unicode="&#x3bc;" horiz-adv-x="465" d="M137 -184h-71v667h71v-344q0 -89 78 -89q33 0 64 22.5t49 54.5v356h72v-483h-72v67q-23 -34 -60.5 -56.5t-79.5 -22.5q-26 0 -51 7v-179z" />
<glyph unicode="&#xb6;" horiz-adv-x="449" d="M376 -100h-43v723h-90v-723h-44v423q-71 0 -121.5 50.5t-50.5 121.5t50.5 121.5t121.5 50.5h177v-767z" />
<glyph unicode="&#xb7;" horiz-adv-x="229" d="M168 245q0 -22 -16 -38t-38 -16t-37.5 16t-15.5 38q0 21 15.5 37t37.5 16t38 -16t16 -37z" />
<glyph unicode="&#x2219;" horiz-adv-x="229" d="M168 245q0 -22 -16 -38t-38 -16t-37.5 16t-15.5 38q0 21 15.5 37t37.5 16t38 -16t16 -37z" />
<glyph unicode="&#xb8;" horiz-adv-x="185" d="M89 -191q-51 0 -89 30l18 37q32 -28 70 -28q22 0 38 11.5t16 30.5q0 35 -33 35q-19 0 -33 -16l-32 18l30 84h44l-26 -66q13 10 33 10q26 0 43 -18t17 -48q0 -35 -27.5 -57.5t-68.5 -22.5z" />
<glyph unicode="&#xb9;" horiz-adv-x="225" d="M169 421h-59v325l-62 -66l-34 36l104 105h51v-400z" />
<glyph unicode="&#xba;" horiz-adv-x="348" d="M173 318q-64 0 -101 47.5t-37 117.5t37 117.5t101 47.5q65 0 102 -47.5t37 -117.5t-37 -117.5t-102 -47.5zM173 365q40 0 61 33.5t21 84.5t-21 84t-61 33q-39 0 -59.5 -33t-20.5 -84t20.5 -84.5t59.5 -33.5z" />
<glyph unicode="&#xbb;" horiz-adv-x="382" d="M222 243l-125 -180h-67l125 180l-125 177h67zM352 243l-125 -180h-67l125 180l-125 177h67z" />
<glyph unicode="&#xbc;" horiz-adv-x="673" d="M516 667l-350 -667h-47l349 667h48zM647 101h-47v-101h-57v101h-169v45l151 254h75v-252h47v-47zM543 148v193l-115 -193h115zM169 267h-59v325l-62 -66l-34 36l104 105h51v-400z" />
<glyph unicode="&#xbd;" horiz-adv-x="708" d="M516 667l-350 -667h-47l349 667h48zM673 0h-251v44q116 115 153.5 161t37.5 87q0 32 -20 49t-49 17q-61 0 -91 -51l-35 35q44 64 128 64q54 0 89.5 -29.5t35.5 -82.5q0 -48 -37 -97.5t-134 -148.5h173v-48zM169 267h-59v325l-62 -66l-34 36l104 105h51v-400z" />
<glyph unicode="&#xbe;" horiz-adv-x="746" d="M589 667l-350 -667h-47l349 667h48zM720 101h-47v-101h-57v101h-169v45l151 254h75v-252h47v-47zM616 148v193l-115 -193h115zM293 376q0 -52 -35 -84t-96 -32q-90 0 -131 66l36 35q33 -53 93 -53q37 0 56.5 19t19.5 52q0 70 -83 70q-28 0 -33 -1v48q6 -1 31 -1 q36 0 57.5 16.5t21.5 48.5t-20 48.5t-52 16.5q-52 0 -88 -47l-34 32q45 63 126 63q56 0 90.5 -28t34.5 -79q0 -36 -22.5 -60.5t-53.5 -31.5q31 -4 56.5 -31t25.5 -67z" />
<glyph unicode="&#xbf;" horiz-adv-x="333" d="M219 297q33 -33 33 -83q0 -34 -15 -62t-36 -48l-42 -40q-21 -19 -36 -44.5t-15 -55.5q0 -37 26 -63.5t71 -26.5q69 0 114 58l41 -52q-63 -77 -166 -77q-75 0 -120.5 42.5t-45.5 106.5q0 39 16 71.5t38 54.5l46 44q22 20 38 45t16 52q0 31 -23 51zM196 493q22 0 38 -16 t16 -38q0 -21 -16 -37t-38 -16t-37.5 16t-15.5 37q0 22 15.5 38t37.5 16z" />
<glyph unicode="&#xc0;" horiz-adv-x="512" d="M315 728h-51l-135 144h73zM504 0h-86l-43 151h-238l-43 -151h-86l201 667h95zM358 222l-102 357l-102 -357h204z" />
<glyph unicode="&#xc1;" horiz-adv-x="512" d="M385 872l-135 -144h-51l114 144h72zM504 0h-86l-43 151h-238l-43 -151h-86l201 667h95zM358 222l-102 357l-102 -357h204z" />
<glyph unicode="&#xc2;" horiz-adv-x="512" d="M374 728h-46l-72 105l-69 -105h-46l80 144h70zM504 0h-86l-43 151h-238l-43 -151h-86l201 667h95zM358 222l-102 357l-102 -357h204z" />
<glyph unicode="&#xc3;" horiz-adv-x="512" d="M307 726q-22 0 -37 14.5t-22 32.5t-18 32.5t-25 14.5q-41 0 -41 -88h-42q0 60 22 97t63 37q22 0 37.5 -14.5t22.5 -32.5t18 -32.5t24 -14.5q41 0 41 88h42q0 -60 -22 -97t-63 -37zM504 0h-86l-43 151h-238l-43 -151h-86l201 667h95zM358 222l-102 357l-102 -357h204z" />
<glyph unicode="&#xc4;" horiz-adv-x="512" d="M389 773q0 -19 -13 -32t-32 -13t-32 13t-13 32q0 18 13 31.5t32 13.5t32 -13.5t13 -31.5zM215 773q0 -19 -13.5 -32t-31.5 -13q-19 0 -32 13t-13 32q0 18 13 31.5t32 13.5q18 0 31.5 -13.5t13.5 -31.5zM504 0h-86l-43 151h-238l-43 -151h-86l201 667h95zM358 222 l-102 357l-102 -357h204z" />
<glyph unicode="&#xc5;" horiz-adv-x="512" d="M257 693q-37 0 -64 26.5t-27 64.5q0 37 26.5 63.5t64.5 26.5q37 0 63.5 -26t26.5 -64t-26.5 -64.5t-63.5 -26.5zM257 731q22 0 37 15.5t15 37.5t-15 37.5t-37 15.5t-37.5 -15.5t-15.5 -37.5t15.5 -37.5t37.5 -15.5zM504 0h-86l-43 151h-238l-43 -151h-86l201 667h95z M358 222l-102 357l-102 -357h204z" />
<glyph unicode="&#xc6;" horiz-adv-x="752" d="M704 0h-343v151h-195l-69 -151h-86l317 667h376v-71h-264v-219h257v-71h-257v-235h264v-71zM361 222v357l-166 -357h166z" />
<glyph unicode="&#xc7;" horiz-adv-x="534" d="M301 -187q-51 0 -89 30l18 37q32 -28 70 -28q22 0 38 11.5t16 30.5q0 35 -33 35q-19 0 -33 -16l-32 18l21 59q-106 13 -168 107t-62 236q0 152 71 248.5t189 96.5q126 0 196 -130l-66 -32q-45 91 -130 91q-81 0 -129.5 -76.5t-48.5 -197.5q0 -120 48.5 -197t129.5 -77 q44 0 77.5 27t53.5 72l66 -31q-67 -132 -185 -138l-15 -40q13 10 33 10q26 0 43 -18t17 -48q0 -35 -27.5 -57.5t-68.5 -22.5z" />
<glyph unicode="&#xc8;" horiz-adv-x="462" d="M302 728h-51l-135 144h73zM413 0h-343v667h343v-71h-263v-219h256v-71h-256v-235h263v-71z" />
<glyph unicode="&#xc9;" horiz-adv-x="462" d="M371 872l-135 -144h-51l114 144h72zM413 0h-343v667h343v-71h-263v-219h256v-71h-256v-235h263v-71z" />
<glyph unicode="&#xca;" horiz-adv-x="462" d="M359 728h-46l-72 105l-69 -105h-46l80 144h70zM413 0h-343v667h343v-71h-263v-219h256v-71h-256v-235h263v-71z" />
<glyph unicode="&#xcb;" horiz-adv-x="462" d="M374 773q0 -19 -13 -32t-32 -13t-32 13t-13 32q0 18 13 31.5t32 13.5t32 -13.5t13 -31.5zM200 773q0 -19 -13.5 -32t-31.5 -13q-19 0 -32 13t-13 32q0 18 13 31.5t32 13.5q18 0 31.5 -13.5t13.5 -31.5zM413 0h-343v667h343v-71h-263v-219h256v-71h-256v-235h263v-71z" />
<glyph unicode="&#xcc;" horiz-adv-x="220" d="M168 728h-51l-135 144h73zM150 0h-80v667h80v-667z" />
<glyph unicode="&#xcd;" horiz-adv-x="220" d="M239 872l-135 -144h-51l114 144h72zM150 0h-80v667h80v-667z" />
<glyph unicode="&#xce;" horiz-adv-x="220" d="M227 728h-46l-72 105l-69 -105h-46l80 144h70zM150 0h-80v667h80v-667z" />
<glyph unicode="&#xcf;" horiz-adv-x="220" d="M243 773q0 -19 -13 -32t-32 -13t-32 13t-13 32q0 18 13 31.5t32 13.5t32 -13.5t13 -31.5zM69 773q0 -19 -13.5 -32t-31.5 -13q-19 0 -32 13t-13 32q0 18 13 31.5t32 13.5q18 0 31.5 -13.5t13.5 -31.5zM150 0h-80v667h80v-667z" />
<glyph unicode="&#xd0;" horiz-adv-x="589" d="M272 0h-178v300h-78v58h78v309h178q127 0 198.5 -93.5t71.5 -240.5q0 -148 -71.5 -240.5t-198.5 -92.5zM298 300h-124v-229h98q90 0 138.5 72.5t48.5 189.5q0 118 -48 190.5t-139 72.5h-98v-238h124v-58z" />
<glyph unicode="&#xd1;" horiz-adv-x="573" d="M334 726q-22 0 -37 14.5t-22 32.5t-18 32.5t-25 14.5q-41 0 -41 -88h-42q0 60 22 97t63 37q22 0 37.5 -14.5t22.5 -32.5t18 -32.5t24 -14.5q41 0 41 88h42q0 -60 -22 -97t-63 -37zM503 0h-76l-277 508v-508h-80v667h80l274 -498v498h79v-667z" />
<glyph unicode="&#xd2;" horiz-adv-x="601" d="M360 728h-51l-135 144h73zM300 -12q-118 0 -185.5 97.5t-67.5 247.5t67.5 247.5t185.5 97.5q119 0 186.5 -97.5t67.5 -247.5t-67.5 -247.5t-186.5 -97.5zM300 59q81 0 126.5 77.5t45.5 196.5q0 120 -45.5 197t-126.5 77t-126 -77t-45 -197q0 -119 45.5 -196.5 t125.5 -77.5z" />
<glyph unicode="&#xd3;" horiz-adv-x="601" d="M429 872l-135 -144h-51l114 144h72zM300 -12q-118 0 -185.5 97.5t-67.5 247.5t67.5 247.5t185.5 97.5q119 0 186.5 -97.5t67.5 -247.5t-67.5 -247.5t-186.5 -97.5zM300 59q81 0 126.5 77.5t45.5 196.5q0 120 -45.5 197t-126.5 77t-126 -77t-45 -197q0 -119 45.5 -196.5 t125.5 -77.5z" />
<glyph unicode="&#xd4;" horiz-adv-x="601" d="M418 728h-46l-72 105l-69 -105h-46l80 144h70zM300 -12q-118 0 -185.5 97.5t-67.5 247.5t67.5 247.5t185.5 97.5q119 0 186.5 -97.5t67.5 -247.5t-67.5 -247.5t-186.5 -97.5zM300 59q81 0 126.5 77.5t45.5 196.5q0 120 -45.5 197t-126.5 77t-126 -77t-45 -197 q0 -119 45.5 -196.5t125.5 -77.5z" />
<glyph unicode="&#xd5;" horiz-adv-x="601" d="M351 726q-22 0 -37 14.5t-22 32.5t-18 32.5t-25 14.5q-41 0 -41 -88h-42q0 60 22 97t63 37q22 0 37.5 -14.5t22.5 -32.5t18 -32.5t24 -14.5q41 0 41 88h42q0 -60 -22 -97t-63 -37zM300 -12q-118 0 -185.5 97.5t-67.5 247.5t67.5 247.5t185.5 97.5q119 0 186.5 -97.5 t67.5 -247.5t-67.5 -247.5t-186.5 -97.5zM300 59q81 0 126.5 77.5t45.5 196.5q0 120 -45.5 197t-126.5 77t-126 -77t-45 -197q0 -119 45.5 -196.5t125.5 -77.5z" />
<glyph unicode="&#xd6;" horiz-adv-x="601" d="M432 773q0 -19 -13 -32t-32 -13t-32 13t-13 32q0 18 13 31.5t32 13.5t32 -13.5t13 -31.5zM258 773q0 -19 -13.5 -32t-31.5 -13q-19 0 -32 13t-13 32q0 18 13 31.5t32 13.5q18 0 31.5 -13.5t13.5 -31.5zM300 -12q-118 0 -185.5 97.5t-67.5 247.5t67.5 247.5t185.5 97.5 q119 0 186.5 -97.5t67.5 -247.5t-67.5 -247.5t-186.5 -97.5zM300 59q81 0 126.5 77.5t45.5 196.5q0 120 -45.5 197t-126.5 77t-126 -77t-45 -197q0 -119 45.5 -196.5t125.5 -77.5z" />
<glyph unicode="&#xd7;" horiz-adv-x="438" d="M347 170l-128 128l-127 -128l-37 36l128 128l-128 128l37 36l127 -128l128 128l36 -36l-128 -128l128 -128z" />
<glyph unicode="&#xd8;" horiz-adv-x="601" d="M300 -12q-77 0 -135 44l-18 -32h-59l38 70q-79 98 -79 263q0 150 67.5 247.5t185.5 97.5q74 0 133 -43l18 32h59l-38 -69q82 -97 82 -265q0 -150 -67.5 -247.5t-186.5 -97.5zM300 59q81 0 126.5 77.5t45.5 196.5q0 115 -41 188l-229 -421q41 -41 98 -41zM129 333 q0 -114 39 -186l228 420q-42 40 -96 40q-81 0 -126 -77t-45 -197z" />
<glyph unicode="&#xd9;" horiz-adv-x="569" d="M344 728h-51l-135 144h73zM285 -12q-101 0 -158 59.5t-57 168.5v451h80v-451q0 -77 35 -117t100 -40q64 0 99 40t35 117v451h80v-451q0 -109 -56.5 -168.5t-157.5 -59.5z" />
<glyph unicode="&#xda;" horiz-adv-x="569" d="M412 872l-135 -144h-51l114 144h72zM285 -12q-101 0 -158 59.5t-57 168.5v451h80v-451q0 -77 35 -117t100 -40q64 0 99 40t35 117v451h80v-451q0 -109 -56.5 -168.5t-157.5 -59.5z" />
<glyph unicode="&#xdb;" horiz-adv-x="569" d="M404 728h-46l-72 105l-69 -105h-46l80 144h70zM285 -12q-101 0 -158 59.5t-57 168.5v451h80v-451q0 -77 35 -117t100 -40q64 0 99 40t35 117v451h80v-451q0 -109 -56.5 -168.5t-157.5 -59.5z" />
<glyph unicode="&#xdc;" horiz-adv-x="569" d="M417 773q0 -19 -13 -32t-32 -13t-32 13t-13 32q0 18 13 31.5t32 13.5t32 -13.5t13 -31.5zM243 773q0 -19 -13.5 -32t-31.5 -13q-19 0 -32 13t-13 32q0 18 13 31.5t32 13.5q18 0 31.5 -13.5t13.5 -31.5zM285 -12q-101 0 -158 59.5t-57 168.5v451h80v-451q0 -77 35 -117 t100 -40q64 0 99 40t35 117v451h80v-451q0 -109 -56.5 -168.5t-157.5 -59.5z" />
<glyph unicode="&#xdd;" horiz-adv-x="501" d="M382 872l-135 -144h-51l114 144h72zM290 0h-79v282l-206 385h89l157 -308l157 308h88l-206 -385v-282z" />
<glyph unicode="&#xde;" horiz-adv-x="488" d="M150 0h-80v667h80v-120h123q88 0 136.5 -57.5t48.5 -143.5q0 -85 -48.5 -142t-136.5 -57h-123v-147zM265 218q51 0 81 35t30 93t-30 94.5t-81 36.5h-115v-259h115z" />
<glyph unicode="&#xdf;" horiz-adv-x="525" d="M508 127q0 -58 -42.5 -98.5t-114.5 -40.5q-54 0 -90 17.5t-67 51.5l34 51q46 -61 117 -61q41 0 66 22t25 56q0 31 -23.5 51.5t-57.5 34.5t-68 29.5t-57.5 46t-23.5 75.5q0 27 12.5 50t31.5 38l36 29q18 14 30.5 30.5t12.5 35.5q0 30 -26.5 49t-62.5 19q-43 0 -70.5 -27.5 t-27.5 -77.5v-508h-72v508q0 73 47 121t124 48q67 0 113.5 -35.5t46.5 -89.5q0 -36 -19.5 -63.5t-43 -42.5t-43 -36t-19.5 -45q0 -28 24 -47t58 -32t68 -29.5t58 -49t24 -80.5z" />
<glyph unicode="&#xe0;" horiz-adv-x="452" d="M387 0h-72v53q-45 -65 -128 -65q-61 0 -103.5 44t-42.5 117t42.5 116t103.5 43q84 0 128 -63v85q0 49 -26 76t-73 27q-69 0 -122 -59l-32 50q67 71 165 71q74 0 117 -39t43 -118v-338zM211 40q71 0 104 60v95q-33 61 -104 61q-45 0 -71 -31t-26 -77t26 -77t71 -31z M285 556h-51l-135 144h73z" />
<glyph unicode="&#xe1;" horiz-adv-x="452" d="M387 0h-72v53q-45 -65 -128 -65q-61 0 -103.5 44t-42.5 117t42.5 116t103.5 43q84 0 128 -63v85q0 49 -26 76t-73 27q-69 0 -122 -59l-32 50q67 71 165 71q74 0 117 -39t43 -118v-338zM211 40q71 0 104 60v95q-33 61 -104 61q-45 0 -71 -31t-26 -77t26 -77t71 -31z M356 700l-135 -144h-51l114 144h72z" />
<glyph unicode="&#xe2;" horiz-adv-x="452" d="M387 0h-72v53q-45 -65 -128 -65q-61 0 -103.5 44t-42.5 117t42.5 116t103.5 43q84 0 128 -63v85q0 49 -26 76t-73 27q-69 0 -122 -59l-32 50q67 71 165 71q74 0 117 -39t43 -118v-338zM211 40q71 0 104 60v95q-33 61 -104 61q-45 0 -71 -31t-26 -77t26 -77t71 -31z M346 556h-46l-72 105l-69 -105h-46l80 144h70z" />
<glyph unicode="&#xe3;" horiz-adv-x="452" d="M387 0h-72v53q-45 -65 -128 -65q-61 0 -103.5 44t-42.5 117t42.5 116t103.5 43q84 0 128 -63v85q0 49 -26 76t-73 27q-69 0 -122 -59l-32 50q67 71 165 71q74 0 117 -39t43 -118v-338zM211 40q71 0 104 60v95q-33 61 -104 61q-45 0 -71 -31t-26 -77t26 -77t71 -31z M278 554q-22 0 -37 14.5t-22 32.5t-18 32.5t-25 14.5q-41 0 -41 -88h-42q0 60 22 97t63 37q22 0 37.5 -14.5t22.5 -32.5t18 -32.5t24 -14.5q41 0 41 88h42q0 -60 -22 -97t-63 -37z" />
<glyph unicode="&#xe4;" horiz-adv-x="452" d="M387 0h-72v53q-45 -65 -128 -65q-61 0 -103.5 44t-42.5 117t42.5 116t103.5 43q84 0 128 -63v85q0 49 -26 76t-73 27q-69 0 -122 -59l-32 50q67 71 165 71q74 0 117 -39t43 -118v-338zM211 40q71 0 104 60v95q-33 61 -104 61q-45 0 -71 -31t-26 -77t26 -77t71 -31z M359 604q0 -19 -13 -32t-32 -13t-32 13t-13 32q0 18 13 31.5t32 13.5t32 -13.5t13 -31.5zM185 604q0 -19 -13.5 -32t-31.5 -13q-19 0 -32 13t-13 32q0 18 13 31.5t32 13.5q18 0 31.5 -13.5t13.5 -31.5z" />
<glyph unicode="&#xe5;" horiz-adv-x="452" d="M387 0h-72v53q-45 -65 -128 -65q-61 0 -103.5 44t-42.5 117t42.5 116t103.5 43q84 0 128 -63v85q0 49 -26 76t-73 27q-69 0 -122 -59l-32 50q67 71 165 71q74 0 117 -39t43 -118v-338zM211 40q71 0 104 60v95q-33 61 -104 61q-45 0 -71 -31t-26 -77t26 -77t71 -31z M227 548q-37 0 -64 27t-27 64t26.5 63.5t64.5 26.5q37 0 63.5 -26.5t26.5 -63.5q0 -38 -26.5 -64.5t-63.5 -26.5zM227 586q22 0 37 15.5t15 37.5t-15 37.5t-37 15.5t-37.5 -15.5t-15.5 -37.5t15.5 -37.5t37.5 -15.5z" />
<glyph unicode="&#xe6;" horiz-adv-x="739" d="M700 218h-314q2 -75 39.5 -122.5t100.5 -47.5q68 0 115 60l38 -43q-64 -77 -159 -77q-108 0 -168 94q-59 -94 -162 -94q-63 0 -106 43.5t-43 116.5t42 116.5t104 43.5q84 0 128 -63v85q0 49 -26 76t-73 27q-69 0 -122 -59l-32 50q67 71 165 71q114 0 136 -91 q47 91 148 91q91 0 140 -72.5t49 -183.5v-21zM386 272h243q-1 64 -31.5 113.5t-90.5 49.5q-58 0 -88.5 -50.5t-32.5 -112.5zM328 120q-13 37 -13 74q-33 62 -104 62q-44 0 -70.5 -29.5t-26.5 -78.5t26.5 -78.5t70.5 -29.5q79 0 117 80z" />
<glyph unicode="&#xe7;" horiz-adv-x="407" d="M242 -189q-52 0 -89 30l18 37q32 -28 70 -28q22 0 38 11.5t16 30.5q0 35 -33 35q-19 0 -33 -16l-32 18l21 61q-81 10 -128.5 80t-47.5 172q0 110 54.5 181.5t146.5 71.5q86 0 138 -64l-39 -49q-36 49 -93 49q-62 0 -97 -54t-35 -135t35 -135.5t97 -54.5q56 0 93 49 l39 -49q-44 -58 -120 -63l-16 -42q13 10 33 10q26 0 43 -18t17 -48q0 -35 -27.5 -57.5t-68.5 -22.5z" />
<glyph unicode="&#xe8;" horiz-adv-x="469" d="M250 -12q-95 0 -151.5 70.5t-56.5 183.5q0 108 53.5 180.5t143.5 72.5q92 0 141.5 -72t49.5 -183v-22h-314q2 -75 39.5 -122.5t100.5 -47.5q69 0 115 60l38 -43q-63 -77 -159 -77zM359 272q-1 64 -31 113.5t-91 49.5q-58 0 -88.5 -50.5t-32.5 -112.5h243zM298 556h-51 l-135 144h73z" />
<glyph unicode="&#xe9;" horiz-adv-x="469" d="M250 -12q-95 0 -151.5 70.5t-56.5 183.5q0 108 53.5 180.5t143.5 72.5q92 0 141.5 -72t49.5 -183v-22h-314q2 -75 39.5 -122.5t100.5 -47.5q69 0 115 60l38 -43q-63 -77 -159 -77zM359 272q-1 64 -31 113.5t-91 49.5q-58 0 -88.5 -50.5t-32.5 -112.5h243zM368 700 l-135 -144h-51l114 144h72z" />
<glyph unicode="&#xea;" horiz-adv-x="469" d="M250 -12q-95 0 -151.5 70.5t-56.5 183.5q0 108 53.5 180.5t143.5 72.5q92 0 141.5 -72t49.5 -183v-22h-314q2 -75 39.5 -122.5t100.5 -47.5q69 0 115 60l38 -43q-63 -77 -159 -77zM359 272q-1 64 -31 113.5t-91 49.5q-58 0 -88.5 -50.5t-32.5 -112.5h243zM356 556h-46 l-72 105l-69 -105h-46l80 144h70z" />
<glyph unicode="&#xeb;" horiz-adv-x="469" d="M250 -12q-95 0 -151.5 70.5t-56.5 183.5q0 108 53.5 180.5t143.5 72.5q92 0 141.5 -72t49.5 -183v-22h-314q2 -75 39.5 -122.5t100.5 -47.5q69 0 115 60l38 -43q-63 -77 -159 -77zM359 272q-1 64 -31 113.5t-91 49.5q-58 0 -88.5 -50.5t-32.5 -112.5h243zM370 604 q0 -19 -13 -32t-32 -13t-32 13t-13 32q0 18 13 31.5t32 13.5t32 -13.5t13 -31.5zM196 604q0 -19 -13.5 -32t-31.5 -13q-19 0 -32 13t-13 32q0 18 13 31.5t32 13.5q18 0 31.5 -13.5t13.5 -31.5z" />
<glyph unicode="&#xec;" horiz-adv-x="203" d="M159 556h-51l-135 144h73zM137 0h-71v483h71v-483z" />
<glyph unicode="&#xed;" horiz-adv-x="203" d="M230 700l-135 -144h-51l114 144h72zM137 0h-71v483h71v-483z" />
<glyph unicode="&#xee;" horiz-adv-x="203" d="M219 556h-46l-72 105l-69 -105h-46l80 144h70zM137 0h-71v483h71v-483z" />
<glyph unicode="&#xef;" horiz-adv-x="203" d="M234 604q0 -19 -13 -32t-32 -13t-32 13t-13 32q0 18 13 31.5t32 13.5t32 -13.5t13 -31.5zM60 604q0 -19 -13.5 -32t-31.5 -13q-19 0 -32 13t-13 32q0 18 13 31.5t32 13.5q18 0 31.5 -13.5t13.5 -31.5zM137 0h-71v483h71v-483z" />
<glyph unicode="&#xf0;" horiz-adv-x="478" d="M121 506l-17 39l111 49q-19 20 -59 56l52 45q42 -38 71 -73l91 41l17 -39l-80 -35q129 -163 129 -338q0 -116 -51.5 -189.5t-145.5 -73.5q-93 0 -145 70.5t-52 176.5q0 104 48.5 174.5t131.5 70.5q76 0 121 -75q-34 81 -99 156zM239 52q60 0 91 53t31 129t-31 129.5 t-91 53.5q-59 0 -90 -53.5t-31 -129.5t31 -129t90 -53z" />
<glyph unicode="&#xf1;" horiz-adv-x="466" d="M401 0h-72v343q0 88 -77 88q-34 0 -65 -22.5t-49 -54.5v-354h-71v483h71v-69q22 34 61 57.5t80 23.5q122 0 122 -131v-364zM284 554q-22 0 -37 14.5t-22 32.5t-18 32.5t-25 14.5q-41 0 -41 -88h-42q0 60 22 97t63 37q22 0 37.5 -14.5t22.5 -32.5t18 -32.5t24 -14.5 q41 0 41 88h42q0 -60 -22 -97t-63 -37z" />
<glyph unicode="&#xf2;" horiz-adv-x="478" d="M239 -12q-93 0 -145 73t-52 181t52 180.5t145 72.5t145 -72.5t52 -180.5t-52 -181t-145 -73zM239 52q60 0 91 55t31 135q0 79 -31 134t-91 55q-59 0 -90 -55t-31 -134q0 -80 31 -135t90 -55zM298 556h-51l-135 144h73z" />
<glyph unicode="&#xf3;" horiz-adv-x="478" d="M239 -12q-93 0 -145 73t-52 181t52 180.5t145 72.5t145 -72.5t52 -180.5t-52 -181t-145 -73zM239 52q60 0 91 55t31 135q0 79 -31 134t-91 55q-59 0 -90 -55t-31 -134q0 -80 31 -135t90 -55zM367 700l-135 -144h-51l114 144h72z" />
<glyph unicode="&#xf4;" horiz-adv-x="478" d="M239 -12q-93 0 -145 73t-52 181t52 180.5t145 72.5t145 -72.5t52 -180.5t-52 -181t-145 -73zM239 52q60 0 91 55t31 135q0 79 -31 134t-91 55q-59 0 -90 -55t-31 -134q0 -80 31 -135t90 -55zM357 556h-46l-72 105l-69 -105h-46l80 144h70z" />
<glyph unicode="&#xf5;" horiz-adv-x="478" d="M239 -12q-93 0 -145 73t-52 181t52 180.5t145 72.5t145 -72.5t52 -180.5t-52 -181t-145 -73zM239 52q60 0 91 55t31 135q0 79 -31 134t-91 55q-59 0 -90 -55t-31 -134q0 -80 31 -135t90 -55zM289 554q-22 0 -37 14.5t-22 32.5t-18 32.5t-25 14.5q-41 0 -41 -88h-42 q0 60 22 97t63 37q22 0 37.5 -14.5t22.5 -32.5t18 -32.5t24 -14.5q41 0 41 88h42q0 -60 -22 -97t-63 -37z" />
<glyph unicode="&#xf6;" horiz-adv-x="478" d="M239 -12q-93 0 -145 73t-52 181t52 180.5t145 72.5t145 -72.5t52 -180.5t-52 -181t-145 -73zM239 52q60 0 91 55t31 135q0 79 -31 134t-91 55q-59 0 -90 -55t-31 -134q0 -80 31 -135t90 -55zM372 604q0 -19 -13 -32t-32 -13t-32 13t-13 32q0 18 13 31.5t32 13.5t32 -13.5 t13 -31.5zM198 604q0 -19 -13.5 -32t-31.5 -13q-19 0 -32 13t-13 32q0 18 13 31.5t32 13.5q18 0 31.5 -13.5t13.5 -31.5z" />
<glyph unicode="&#xf7;" horiz-adv-x="443" d="M267 503q0 -19 -13 -32.5t-32 -13.5t-32 13.5t-13 32.5t13 31.5t32 12.5t32 -12.5t13 -31.5zM414 312h-385v51h385v-51zM267 168q0 -19 -13 -32t-32 -13t-32 13t-13 32q0 18 13 31.5t32 13.5t32 -13.5t13 -31.5z" />
<glyph unicode="&#xf8;" horiz-adv-x="478" d="M105 0h-50l39 60q-52 70 -52 182q0 108 52 180.5t145 72.5q66 0 113 -39l17 27h50l-38 -58q55 -70 55 -183q0 -108 -52 -181t-145 -73q-68 0 -115 41zM239 52q60 0 91 55t31 135q0 66 -23 117l-176 -271q30 -36 77 -36zM118 242q0 -68 20 -114l176 270q-31 33 -75 33 q-59 0 -90 -55t-31 -134z" />
<glyph unicode="&#xf9;" horiz-adv-x="465" d="M400 0h-72v67q-23 -34 -60.5 -56.5t-79.5 -22.5q-122 0 -122 130v365h71v-344q0 -87 78 -87q34 0 64.5 22t48.5 53v356h72v-483zM292 556h-51l-135 144h73z" />
<glyph unicode="&#xfa;" horiz-adv-x="465" d="M400 0h-72v67q-23 -34 -60.5 -56.5t-79.5 -22.5q-122 0 -122 130v365h71v-344q0 -87 78 -87q34 0 64.5 22t48.5 53v356h72v-483zM362 700l-135 -144h-51l114 144h72z" />
<glyph unicode="&#xfb;" horiz-adv-x="465" d="M400 0h-72v67q-23 -34 -60.5 -56.5t-79.5 -22.5q-122 0 -122 130v365h71v-344q0 -87 78 -87q34 0 64.5 22t48.5 53v356h72v-483zM350 556h-46l-72 105l-69 -105h-46l80 144h70z" />
<glyph unicode="&#xfc;" horiz-adv-x="465" d="M400 0h-72v67q-23 -34 -60.5 -56.5t-79.5 -22.5q-122 0 -122 130v365h71v-344q0 -87 78 -87q34 0 64.5 22t48.5 53v356h72v-483zM367 604q0 -19 -13 -32t-32 -13t-32 13t-13 32q0 18 13 31.5t32 13.5t32 -13.5t13 -31.5zM193 604q0 -19 -13.5 -32t-31.5 -13q-19 0 -32 13 t-13 32q0 18 13 31.5t32 13.5q18 0 31.5 -13.5t13.5 -31.5z" />
<glyph unicode="&#xfd;" horiz-adv-x="409" d="M41 -189l12 64q11 -7 32 -7t34.5 10.5t22.5 37.5l25 74l-161 493h78l121 -396l121 396h77l-194 -584q-17 -52 -46 -73.5t-74 -21.5q-29 0 -48 7zM333 700l-135 -144h-51l114 144h72z" />
<glyph unicode="&#xfe;" horiz-adv-x="479" d="M265 -12q-84 0 -128 80v-252h-71v851h71v-251q45 79 128 79q81 0 127 -69t46 -184t-46 -184.5t-127 -69.5zM247 52q57 0 86.5 53.5t29.5 136.5t-29.5 136t-86.5 53q-34 0 -64.5 -22.5t-45.5 -55.5v-221q15 -33 46 -56.5t64 -23.5z" />
<glyph unicode="&#xff;" horiz-adv-x="409" d="M41 -189l12 64q11 -7 32 -7t34.5 10.5t22.5 37.5l25 74l-161 493h78l121 -396l121 396h77l-194 -584q-17 -52 -46 -73.5t-74 -21.5q-29 0 -48 7zM337 604q0 -19 -13 -32t-32 -13t-32 13t-13 32q0 18 13 31.5t32 13.5t32 -13.5t13 -31.5zM163 604q0 -19 -13.5 -32 t-31.5 -13q-19 0 -32 13t-13 32q0 18 13 31.5t32 13.5q18 0 31.5 -13.5t13.5 -31.5z" />
<glyph unicode="&#x152;" horiz-adv-x="852" d="M803 0h-343v94q-27 -54 -72.5 -80t-96.5 -26q-114 0 -179 97.5t-65 247.5q0 151 65 247.5t179 96.5q51 0 96.5 -25.5t72.5 -78.5v94h343v-71h-264v-219h257v-71h-257v-235h264v-71zM460 201v265q-20 67 -61.5 103.5t-96.5 36.5q-83 0 -128 -76.5t-45 -196.5t45.5 -197 t127.5 -77q54 0 96 37t62 105z" />
<glyph unicode="&#x153;" horiz-adv-x="787" d="M748 218h-313q2 -75 39 -122.5t100 -47.5q69 0 115 60l39 -43q-64 -77 -160 -77q-123 0 -169 124q-48 -124 -160 -124q-93 0 -145 73t-52 181t52 180.5t145 72.5q114 0 159 -122q20 52 60 87t99 35q92 0 141.5 -72.5t49.5 -183.5v-21zM434 272h243q0 29 -7 56.5t-20.5 52 t-38 39.5t-55.5 15q-59 0 -89.5 -50.5t-32.5 -112.5zM361 242q0 80 -31.5 134.5t-90.5 54.5t-90 -54.5t-31 -134.5t31 -135.5t90 -55.5t90.5 55.5t31.5 135.5z" />
<glyph unicode="&#x178;" horiz-adv-x="501" d="M386 773q0 -19 -13 -32t-32 -13t-32 13t-13 32q0 18 13 31.5t32 13.5t32 -13.5t13 -31.5zM212 773q0 -19 -13.5 -32t-31.5 -13q-19 0 -32 13t-13 32q0 18 13 31.5t32 13.5q18 0 31.5 -13.5t13.5 -31.5zM290 0h-79v282l-206 385h89l157 -308l157 308h88l-206 -385v-282z " />
<glyph unicode="&#x2c6;" horiz-adv-x="233" d="M233 556h-46l-72 105l-69 -105h-46l80 144h70z" />
<glyph unicode="&#x2dc;" horiz-adv-x="270" d="M185 554q-22 0 -37 14.5t-22 32.5t-18 32.5t-25 14.5q-41 0 -41 -88h-42q0 60 22 97t63 37q22 0 37.5 -14.5t22.5 -32.5t18 -32.5t24 -14.5q41 0 41 88h42q0 -60 -22 -97t-63 -37z" />
<glyph unicode="&#x2000;" horiz-adv-x="437" />
<glyph unicode="&#x2001;" horiz-adv-x="874" />
<glyph unicode="&#x2002;" horiz-adv-x="437" />
<glyph unicode="&#x2003;" horiz-adv-x="874" />
<glyph unicode="&#x2004;" horiz-adv-x="291" />
<glyph unicode="&#x2005;" horiz-adv-x="218" />
<glyph unicode="&#x2006;" horiz-adv-x="145" />
<glyph unicode="&#x2007;" horiz-adv-x="145" />
<glyph unicode="&#x2008;" horiz-adv-x="109" />
<glyph unicode="&#x2009;" horiz-adv-x="174" />
<glyph unicode="&#x200a;" horiz-adv-x="48" />
<glyph unicode="&#x2010;" horiz-adv-x="268" d="M238 210h-208v64h208v-64z" />
<glyph unicode="&#x2011;" horiz-adv-x="268" d="M238 210h-208v64h208v-64z" />
<glyph unicode="&#x2013;" horiz-adv-x="527" d="M497 210h-467v64h467v-64z" />
<glyph unicode="&#x2014;" horiz-adv-x="737" d="M707 210h-677v64h677v-64z" />
<glyph unicode="&#x2018;" horiz-adv-x="229" d="M53 529q0 44 22 83.5t57 64.5l36 -29q-24 -16 -42.5 -42.5t-20.5 -50.5l5 1q5 1 7 1q21 0 34.5 -14.5t13.5 -35.5t-15 -36.5t-37 -15.5q-25 0 -42.5 20t-17.5 54z" />
<glyph unicode="&#x2019;" horiz-adv-x="229" d="M173 603q0 -44 -22.5 -84t-57.5 -65l-36 30q24 16 42.5 42.5t21.5 50.5q-4 -2 -13 -2q-20 0 -33.5 14t-13.5 36q0 21 15 36.5t37 15.5q25 0 42.5 -20t17.5 -54z" />
<glyph unicode="&#x201a;" horiz-adv-x="229" d="M173 22q0 -43 -22.5 -83t-57.5 -65l-36 29q24 17 42.5 43t21.5 50q-1 0 -5.5 -0.5t-7.5 -0.5q-20 0 -33.5 14t-13.5 35q0 22 15 37.5t37 15.5q25 0 42.5 -20t17.5 -55z" />
<glyph unicode="&#x201c;" horiz-adv-x="386" d="M56 529q0 43 22 83t57 65l37 -29q-24 -16 -42.5 -42.5t-21.5 -50.5l5 1q5 1 8 1q20 0 33.5 -14.5t13.5 -35.5t-15 -36.5t-37 -15.5q-25 0 -42.5 20t-17.5 54zM213 529q0 43 22.5 83t57.5 65l36 -29q-24 -16 -42.5 -42.5t-20.5 -50.5l5 1q5 1 7 1q20 0 33.5 -14.5 t13.5 -35.5t-15 -36.5t-37 -15.5q-25 0 -42.5 20t-17.5 54z" />
<glyph unicode="&#x201d;" horiz-adv-x="386" d="M330 603q0 -44 -22 -84t-57 -65l-36 30q24 16 42.5 42.5t20.5 50.5q-2 -2 -13 -2q-20 0 -33.5 14t-13.5 36q0 21 15 36.5t37 15.5q25 0 42.5 -20t17.5 -54zM173 603q0 -44 -22.5 -84t-57.5 -65l-36 30q24 16 42.5 42.5t21.5 50.5q-4 -2 -13 -2q-20 0 -33.5 14t-13.5 36 q0 21 15 36.5t37 15.5q25 0 42.5 -20t17.5 -54z" />
<glyph unicode="&#x201e;" horiz-adv-x="386" d="M173 22q0 -43 -22.5 -83t-57.5 -65l-36 29q24 17 42.5 43t21.5 50q-1 0 -5.5 -0.5t-7.5 -0.5q-20 0 -33.5 14t-13.5 35q0 22 15 37.5t37 15.5q25 0 42.5 -20t17.5 -55zM330 22q0 -44 -22 -83.5t-57 -64.5l-36 29q25 17 43 43t20 50h-5q-5 -1 -8 -1q-20 0 -33.5 14 t-13.5 35q0 22 15 37.5t37 15.5q25 0 42.5 -20t17.5 -55z" />
<glyph unicode="&#x2022;" horiz-adv-x="358" d="M287 242q0 -44 -31.5 -75t-75.5 -31t-75.5 31t-31.5 75t31.5 75.5t75.5 31.5t75.5 -31.5t31.5 -75.5z" />
<glyph unicode="&#x2026;" horiz-adv-x="685" d="M168 44q0 -22 -16 -38t-38 -16t-37.5 16t-15.5 38q0 21 15.5 37t37.5 16t38 -16t16 -37zM396 44q0 -22 -15.5 -38t-37.5 -16t-38 16t-16 38q0 21 16 37t38 16t37.5 -16t15.5 -37zM625 44q0 -22 -16 -38t-38 -16t-37.5 16t-15.5 38q0 21 15.5 37t37.5 16t38 -16t16 -37z " />
<glyph unicode="&#x202f;" horiz-adv-x="174" />
<glyph unicode="&#x2039;" horiz-adv-x="252" d="M222 63h-67l-125 180l125 177h67l-125 -177z" />
<glyph unicode="&#x203a;" horiz-adv-x="252" d="M222 243l-125 -180h-67l125 180l-125 177h67z" />
<glyph unicode="&#x205f;" horiz-adv-x="218" />
<glyph unicode="&#x20ac;" horiz-adv-x="550" d="M324 -12q-99 0 -165 67.5t-87 182.5h-48v50h41q-1 14 -1 45t2 47h-42v51h48q21 113 87.5 180t164.5 67q126 0 196 -130l-66 -32q-45 91 -130 91q-63 0 -107 -47.5t-62 -128.5h212v-51h-219q-2 -15 -2 -47q0 -31 2 -45h219v-50h-212q17 -83 61.5 -131t107.5 -48 q44 0 77.5 27t53.5 72l66 -31q-69 -139 -197 -139z" />
<glyph unicode="&#x2122;" horiz-adv-x="414" d="M379 447h-28v182l-65 -182h-8l-65 182v-182h-28v220h43l54 -158l54 158h43v-220zM149 641h-52v-194h-28v194h-52v26h132v-26z" />
<glyph unicode="&#x2153;" horiz-adv-x="708" d="M516 667l-350 -667h-47l349 667h48zM674 109q0 -52 -35 -84t-96 -32q-90 0 -131 66l36 35q33 -53 93 -53q37 0 56.5 19t19.5 52q0 70 -83 70q-28 0 -33 -1v48q6 -1 31 -1q36 0 57.5 16.5t21.5 48.5t-20 48.5t-52 16.5q-52 0 -88 -47l-34 32q45 63 126 63q56 0 90.5 -28 t34.5 -79q0 -36 -22.5 -60.5t-53.5 -31.5q31 -4 56.5 -31t25.5 -67zM169 267h-59v325l-62 -66l-34 36l104 105h51v-400z" />
<glyph unicode="&#x2154;" horiz-adv-x="781" d="M589 667l-350 -667h-47l349 667h48zM747 109q0 -52 -35 -84t-96 -32q-90 0 -131 66l36 35q33 -53 93 -53q37 0 56.5 19t19.5 52q0 70 -83 70q-28 0 -33 -1v48q6 -1 31 -1q36 0 57.5 16.5t21.5 48.5t-20 48.5t-52 16.5q-52 0 -88 -47l-34 32q45 63 126 63q56 0 90.5 -28 t34.5 -79q0 -36 -22.5 -60.5t-53.5 -31.5q31 -4 56.5 -31t25.5 -67zM292 267h-251v44q116 115 153.5 161t37.5 87q0 32 -20 49t-49 17q-61 0 -91 -51l-35 35q44 64 128 64q54 0 89.5 -29.5t35.5 -82.5q0 -48 -37 -97.5t-134 -148.5h173v-48z" />
<glyph unicode="&#x215b;" horiz-adv-x="708" d="M516 667l-350 -667h-47l349 667h48zM676 100q0 -50 -37 -78.5t-95 -28.5t-95 28.5t-37 78.5q0 37 25.5 66t61.5 40q-34 11 -57 36t-23 61q0 51 37 77t88 26q52 0 89 -26t37 -77q0 -36 -23 -61t-57 -36q35 -11 60.5 -40t25.5 -66zM613 296q0 30 -19 47t-50 17t-49.5 -17 t-18.5 -47q0 -22 15 -39t28.5 -23t24.5 -8q21 4 45 21t24 49zM618 105q0 35 -26.5 56.5t-47.5 23.5q-20 -3 -47 -24t-27 -56q0 -31 21 -48.5t53 -17.5t53 17.5t21 48.5zM169 267h-59v325l-62 -66l-34 36l104 105h51v-400z" />
<glyph unicode="&#x215c;" horiz-adv-x="781" d="M589 667l-350 -667h-47l349 667h48zM749 100q0 -50 -37 -78.5t-95 -28.5t-95 28.5t-37 78.5q0 37 25.5 66t61.5 40q-34 11 -57 36t-23 61q0 51 37 77t88 26q52 0 89 -26t37 -77q0 -36 -23 -61t-57 -36q35 -11 60.5 -40t25.5 -66zM686 296q0 30 -19 47t-50 17t-49.5 -17 t-18.5 -47q0 -22 15 -39t28.5 -23t24.5 -8q21 4 45 21t24 49zM691 105q0 35 -26.5 56.5t-47.5 23.5q-20 -3 -47 -24t-27 -56q0 -31 21 -48.5t53 -17.5t53 17.5t21 48.5zM293 376q0 -52 -35 -84t-96 -32q-90 0 -131 66l36 35q33 -53 93 -53q37 0 56.5 19t19.5 52q0 70 -83 70 q-28 0 -33 -1v48q6 -1 31 -1q36 0 57.5 16.5t21.5 48.5t-20 48.5t-52 16.5q-52 0 -88 -47l-34 32q45 63 126 63q56 0 90.5 -28t34.5 -79q0 -36 -22.5 -60.5t-53.5 -31.5q31 -4 56.5 -31t25.5 -67z" />
<glyph unicode="&#x215d;" horiz-adv-x="778" d="M586 667l-350 -667h-47l349 667h48zM746 100q0 -50 -37 -78.5t-95 -28.5t-95 28.5t-37 78.5q0 37 25.5 66t61.5 40q-34 11 -57 36t-23 61q0 51 37 77t88 26q52 0 89 -26t37 -77q0 -36 -23 -61t-57 -36q35 -11 60.5 -40t25.5 -66zM683 296q0 30 -19 47t-50 17t-49.5 -17 t-18.5 -47q0 -22 15 -39t28.5 -23t24.5 -8q21 4 45 21t24 49zM688 105q0 35 -26.5 56.5t-47.5 23.5q-20 -3 -47 -24t-27 -56q0 -31 21 -48.5t53 -17.5t53 17.5t21 48.5zM293 393q0 -59 -37 -96t-95 -37q-86 0 -129 66l37 35q33 -53 91 -53q34 0 54.5 24t20.5 59 q0 39 -19.5 62t-52.5 23q-44 0 -77 -40l-42 15v216h227v-48h-169v-134q29 35 80 35q47 0 79 -33.5t32 -93.5z" />
<glyph unicode="&#x215e;" horiz-adv-x="711" d="M519 667l-350 -667h-47l349 667h48zM679 100q0 -50 -37 -78.5t-95 -28.5t-95 28.5t-37 78.5q0 37 25.5 66t61.5 40q-34 11 -57 36t-23 61q0 51 37 77t88 26q52 0 89 -26t37 -77q0 -36 -23 -61t-57 -36q35 -11 60.5 -40t25.5 -66zM616 296q0 30 -19 47t-50 17t-49.5 -17 t-18.5 -47q0 -22 15 -39t28.5 -23t24.5 -8q21 4 45 21t24 49zM621 105q0 35 -26.5 56.5t-47.5 23.5q-20 -3 -47 -24t-27 -56q0 -31 21 -48.5t53 -17.5t53 17.5t21 48.5zM273 627l-138 -360h-60l138 352h-188v48h248v-40z" />
<glyph horiz-adv-x="238" d="M162 -12q-96 0 -96 109v570h71v-557q0 -58 40 -58q27 0 41 19l22 -54q-29 -29 -78 -29z" />
<glyph d="M415 0h-72v69q-21 -37 -55 -59t-72 -22q-81 0 -127.5 69t-46.5 184t46.5 184.5t127.5 69.5q83 0 127 -82v70h72v-483zM234 52q34 0 64.5 23t44.5 55v221q-14 33 -45 56.5t-64 23.5q-57 0 -87 -53.5t-30 -136.5q0 -82 30 -135.5t87 -53.5z" />
<glyph horiz-adv-x="465" d="M217 -196q-97 0 -156 61l33 59q46 -56 120 -56q54 0 84 33.5t30 95.5v78q-24 -33 -61 -55.5t-79 -22.5q-62 0 -92 31.5t-30 97.5v357h71v-336q0 -87 78 -87q34 0 64.5 22t48.5 54v347h72v-486q0 -93 -50 -143t-133 -50z" />
<glyph horiz-adv-x="564" d="M303 -12q-115 0 -185.5 95t-70.5 250t71.5 250t188.5 95q128 0 199 -126l-64 -33q-49 88 -135 88q-80 0 -129 -75.5t-49 -198.5t49 -198.5t129 -75.5q71 0 110 60.5t46 151.5h-191v70h272q0 -167 -60.5 -260t-180.5 -93z" />
<glyph horiz-adv-x="509" d="M267 -12q-101 0 -162.5 79.5t-61.5 207.5q0 129 62 208t165 79q110 0 173 -107l-59 -30q-44 71 -114 71q-68 0 -109 -61t-41 -160q0 -98 40.5 -159.5t109.5 -61.5q55 0 91 49t42 119h-148v63h223q0 -135 -54.5 -216t-156.5 -81z" />
<glyph d="M372 700l-135 -144h-51l114 144h72zM415 0h-72v69q-21 -37 -55 -59t-72 -22q-81 0 -127.5 69t-46.5 184t46.5 184.5t127.5 69.5q83 0 127 -82v70h72v-483zM234 52q34 0 64.5 23t44.5 55v221q-14 33 -45 56.5t-64 23.5q-57 0 -87 -53.5t-30 -136.5q0 -82 30 -135.5 t87 -53.5z" />
<glyph d="M302 556h-51l-135 144h73zM415 0h-72v69q-21 -37 -55 -59t-72 -22q-81 0 -127.5 69t-46.5 184t46.5 184.5t127.5 69.5q83 0 127 -82v70h72v-483zM234 52q34 0 64.5 23t44.5 55v221q-14 33 -45 56.5t-64 23.5q-57 0 -87 -53.5t-30 -136.5q0 -82 30 -135.5t87 -53.5z" />
<glyph d="M361 556h-46l-72 105l-69 -105h-46l80 144h70zM415 0h-72v69q-21 -37 -55 -59t-72 -22q-81 0 -127.5 69t-46.5 184t46.5 184.5t127.5 69.5q83 0 127 -82v70h72v-483zM234 52q34 0 64.5 23t44.5 55v221q-14 33 -45 56.5t-64 23.5q-57 0 -87 -53.5t-30 -136.5 q0 -82 30 -135.5t87 -53.5z" />
<glyph d="M375 604q0 -19 -13 -32t-32 -13t-32 13t-13 32q0 18 13 31.5t32 13.5t32 -13.5t13 -31.5zM201 604q0 -19 -13.5 -32t-31.5 -13q-19 0 -32 13t-13 32q0 18 13 31.5t32 13.5q18 0 31.5 -13.5t13.5 -31.5zM415 0h-72v69q-21 -37 -55 -59t-72 -22q-81 0 -127.5 69t-46.5 184 t46.5 184.5t127.5 69.5q83 0 127 -82v70h72v-483zM234 52q34 0 64.5 23t44.5 55v221q-14 33 -45 56.5t-64 23.5q-57 0 -87 -53.5t-30 -136.5q0 -82 30 -135.5t87 -53.5z" />
<glyph d="M293 554q-22 0 -37 14.5t-22 32.5t-18 32.5t-25 14.5q-41 0 -41 -88h-42q0 60 22 97t63 37q22 0 37.5 -14.5t22.5 -32.5t18 -32.5t24 -14.5q41 0 41 88h42q0 -60 -22 -97t-63 -37zM415 0h-72v69q-21 -37 -55 -59t-72 -22q-81 0 -127.5 69t-46.5 184t46.5 184.5 t127.5 69.5q83 0 127 -82v70h72v-483zM234 52q34 0 64.5 23t44.5 55v221q-14 33 -45 56.5t-64 23.5q-57 0 -87 -53.5t-30 -136.5q0 -82 30 -135.5t87 -53.5z" />
<glyph d="M243 555q-37 0 -64 26.5t-27 64.5q0 37 26.5 63.5t64.5 26.5q37 0 63.5 -26t26.5 -64t-26.5 -64.5t-63.5 -26.5zM243 593q22 0 37 15.5t15 37.5t-15 37.5t-37 15.5t-37.5 -15.5t-15.5 -37.5t15.5 -37.5t37.5 -15.5zM415 0h-72v69q-21 -37 -55 -59t-72 -22 q-81 0 -127.5 69t-46.5 184t46.5 184.5t127.5 69.5q83 0 127 -82v70h72v-483zM234 52q34 0 64.5 23t44.5 55v221q-14 33 -45 56.5t-64 23.5q-57 0 -87 -53.5t-30 -136.5q0 -82 30 -135.5t87 -53.5z" />
<glyph horiz-adv-x="465" d="M360 700l-135 -144h-51l114 144h72zM217 -196q-97 0 -156 61l33 59q46 -56 120 -56q54 0 84 33.5t30 95.5v78q-24 -33 -61 -55.5t-79 -22.5q-62 0 -92 31.5t-30 97.5v357h71v-336q0 -87 78 -87q34 0 64.5 22t48.5 54v347h72v-486q0 -93 -50 -143t-133 -50z" />
<glyph horiz-adv-x="465" d="M363 604q0 -19 -13 -32t-32 -13t-32 13t-13 32q0 18 13 31.5t32 13.5t32 -13.5t13 -31.5zM189 604q0 -19 -13.5 -32t-31.5 -13q-19 0 -32 13t-13 32q0 18 13 31.5t32 13.5q18 0 31.5 -13.5t13.5 -31.5zM217 -196q-97 0 -156 61l33 59q46 -56 120 -56q54 0 84 33.5 t30 95.5v78q-24 -33 -61 -55.5t-79 -22.5q-62 0 -92 31.5t-30 97.5v357h71v-336q0 -87 78 -87q34 0 64.5 22t48.5 54v347h72v-486q0 -93 -50 -143t-133 -50z" />
<glyph horiz-adv-x="768" d="M415 0h-72v69q-21 -37 -55 -59t-72 -22q-81 0 -127.5 69t-46.5 184t46.5 184.5t127.5 69.5q83 0 127 -82v70h72v-86q41 98 137 98q86 0 131.5 -72t45.5 -183v-22h-314q2 -75 39 -122t101 -47q69 0 115 60l38 -45q-58 -76 -144 -76q-106 0 -149 102v-90zM234 52 q34 0 64.5 23t44.5 55v221q-14 33 -45 56.5t-64 23.5q-57 0 -87 -53.5t-30 -136.5q0 -82 30 -135.5t87 -53.5zM658 272q-1 64 -31 113.5t-91 49.5q-57 0 -87.5 -48.5t-33.5 -109.5v-5h243z" />
<glyph horiz-adv-x="514" d="M257 -12q-74 0 -124 53l-21 -41h-58l46 88q-53 93 -53 245q0 88 19 162t68 128t123 54q72 0 122 -52l22 42h58l-46 -88q54 -97 54 -246q0 -64 -11.5 -122t-35 -109.5t-65.5 -82.5t-98 -31zM257 59q37 0 63 23.5t39.5 65t19.5 87t6 98.5q0 91 -17 159l-198 -380 q32 -53 87 -53zM129 333q0 -94 16 -158l197 380q-31 51 -85 51q-128 0 -128 -273z" />
<glyph horiz-adv-x="491" d="M155 0h-72v420h-64v63h64v58q0 64 32.5 100t85.5 36q37 0 62 -15l-18 -58q-11 9 -31 9q-28 0 -43.5 -19t-15.5 -53v-58h81v-63h-81v-420zM415 -12q-96 0 -96 109v570h71v-557q0 -58 40 -58q27 0 41 19l22 -54q-29 -29 -78 -29z" />
<glyph horiz-adv-x="745" d="M155 0h-72v420h-64v63h64v58q0 64 32.5 100t88.5 36q54 0 86 -32l-28 -53q-20 21 -46 21q-61 0 -61 -72v-58h81v-63h-81v-420zM408 0h-72v420h-64v63h64v58q0 64 32.5 100t85.5 36q36 0 62 -15l-18 -58q-10 9 -31 9q-28 0 -43.5 -19t-15.5 -53v-58h81v-63h-81v-420z M669 -12q-96 0 -96 109v570h71v-557q0 -58 40 -58q27 0 41 19l22 -54q-29 -29 -78 -29z" />
</font>
</defs>
</svg>
